<?xml version="1.0" encoding="UTF-8" standalone="no"?>
<svg width="16px" height="16px" viewBox="0 0 16 16" version="1.1" xmlns="http://www.w3.org/2000/svg" xmlns:xlink="http://www.w3.org/1999/xlink" xmlns:sketch="http://www.bohemiancoding.com/sketch/ns">
    <!-- Generator: Sketch 3.5.2 (25235) - http://www.bohemiancoding.com/sketch -->
    <title>Fault</title>
    <desc>Created with Sketch.</desc>
    <defs></defs>
    <g id="Page-1" stroke="none" stroke-width="1" fill="none" fill-rule="evenodd" sketch:type="MSPage">
        <g id="Fault" sketch:type="MSArtboardGroup">
            <g id="Generic-issue" sketch:type="MSLayerGroup" transform="translate(1.000000, 1.000000)" fill="#F79232">
                <rect id="Rectangle-36" sketch:type="MSShapeGroup" x="0" y="0" width="14" height="14" rx="2"></rect>
            </g>
            <g id="Group-2-Copy" sketch:type="MSLayerGroup" transform="translate(8.000000, 8.000000) rotate(-45.000000) translate(-8.000000, -8.000000) translate(7.000000, 4.000000)"></g>
            <g id="tool" sketch:type="MSLayerGroup" transform="translate(4.000000, 4.000000)" fill="#FFFFFF">
                <path d="M7.86446091,1.69134426 L6.54821399,3.00229508 L5.39674074,2.59259016 L4.98534979,1.44593443 L6.30169547,0.134983607 C5.43815638,-0.152786885 4.44714403,0.0452131148 3.75937449,0.730131148 C3.0843786,1.40239344 2.88039506,2.3655082 3.14620576,3.2142623 C3.11045267,3.24229508 3.07575309,3.27252459 3.04269959,3.30531148 L0.339390947,5.99767213 C-0.113185185,6.4482623 -0.113185185,7.17865574 0.339390947,7.62934426 C0.791802469,8.07990164 1.52520165,8.07990164 1.97774486,7.62934426 L4.68108642,4.93698361 C4.714107,4.90406557 4.74446091,4.86947541 4.77264198,4.83386885 C5.6247572,5.09862295 6.59183539,4.89547541 7.26683128,4.22321311 C7.95446914,3.53829508 8.15341564,2.55147541 7.86446091,1.69134426 L7.86446091,1.69134426 Z" id="Fill-1" sketch:type="MSShapeGroup"></path>
            </g>
        </g>
    </g>
</svg>