<?xml version="1.0" encoding="UTF-8" standalone="no"?>
<svg width="16px" height="16px" viewBox="0 0 16 16" version="1.1" xmlns="http://www.w3.org/2000/svg" xmlns:xlink="http://www.w3.org/1999/xlink" xmlns:sketch="http://www.bohemiancoding.com/sketch/ns">
    <!-- Generator: Sketch 3.5.2 (25235) - http://www.bohemiancoding.com/sketch -->
    <title>Incident</title>
    <desc>Created with Sketch.</desc>
    <defs></defs>
    <g id="Page-1" stroke="none" stroke-width="1" fill="none" fill-rule="evenodd" sketch:type="MSPage">
        <g id="Incident" sketch:type="MSArtboardGroup">
            <g id="Generic-issue" sketch:type="MSLayerGroup" transform="translate(1.000000, 1.000000)" fill="#E3483A">
                <rect id="Rectangle-36" sketch:type="MSShapeGroup" x="0" y="0" width="14" height="14" rx="2"></rect>
            </g>
            <path d="M9.29674917,6 L5.49100518,6 C5.22788048,6 5,6.21959471 5,6.49047852 L5,9.50952148 C5,9.72577852 5.13552953,9.9048202 5.32502737,9.97176211 C5.32628841,9.97047422 5.32755797,9.96919121 5.32883604,9.96791313 L9.29674917,6 Z M10.7554307,6.06515926 C10.9016777,6.14908576 11,6.30628286 11,6.49047852 L11,9.50952148 C11,9.78040529 10.7721195,10 10.5089948,10 L6.82240486,10 L10.7307411,6.0916638 C10.739358,6.08304686 10.7475876,6.07420543 10.7554307,6.06515926 Z M4,5.99077797 C4,5.44358641 4.45303631,5 4.99703014,5 L11.0029699,5 C11.5536144,5 12,5.45097518 12,5.99077797 L12,10.009222 C12,10.5564136 11.5469637,11 11.0029699,11 L4.99703014,11 C4.4463856,11 4,10.5490248 4,10.009222 L4,5.99077797 Z" id="Rectangle-140" fill="#FFFFFF" sketch:type="MSShapeGroup"></path>
        </g>
    </g>
</svg>