<?xml version="1.0" encoding="UTF-8" standalone="no"?>
<svg width="16px" height="16px" viewBox="0 0 16 16" version="1.1" xmlns="http://www.w3.org/2000/svg" xmlns:xlink="http://www.w3.org/1999/xlink" xmlns:sketch="http://www.bohemiancoding.com/sketch/ns">
    <!-- Generator: Sketch 3.5.2 (25235) - http://www.bohemiancoding.com/sketch -->
    <title>IT_help</title>
    <desc>Created with Sketch.</desc>
    <defs></defs>
    <g id="Page-1" stroke="none" stroke-width="1" fill="none" fill-rule="evenodd" sketch:type="MSPage">
        <g id="IT_help" sketch:type="MSArtboardGroup">
            <g id="Generic-issue" sketch:type="MSLayerGroup" transform="translate(1.000000, 1.000000)" fill="#55AEE3">
                <rect id="Rectangle-36" sketch:type="MSShapeGroup" x="0" y="0" width="14" height="14" rx="2"></rect>
            </g>
            <path d="M6,11 L5.5,11 C5.22385763,11 5,11.2238576 5,11.5 C5,11.7761424 5.22385763,12 5.5,12 L10.5,12 C10.7761424,12 11,11.7761424 11,11.5 C11,11.2238576 10.7761424,11 10.5,11 L10,11 L10,10 L6,10 L6,11 Z M4,4.99077797 C4,4.44358641 4.45303631,4 4.99703014,4 L11.0029699,4 C11.5536144,4 12,4.45097518 12,4.99077797 L12,9.00922203 C12,9.55641359 11.5469637,10 11.0029699,10 L4.99703014,10 C4.4463856,10 4,9.54902482 4,9.00922203 L4,4.99077797 Z M5,5 L11,5 L11,9 L5,9 L5,5 Z" id="Rectangle-6" fill="#FFFFFF" sketch:type="MSShapeGroup"></path>
        </g>
    </g>
</svg>