<?xml version="1.0" encoding="UTF-8" standalone="no"?>
<svg width="16px" height="16px" viewBox="0 0 16 16" version="1.1" xmlns="http://www.w3.org/2000/svg" xmlns:xlink="http://www.w3.org/1999/xlink" xmlns:sketch="http://www.bohemiancoding.com/sketch/ns">
    <!-- Generator: Sketch 3.5.2 (25235) - http://www.bohemiancoding.com/sketch -->
    <title>Problem</title>
    <desc>Created with Sketch.</desc>
    <defs></defs>
    <g id="Page-1" stroke="none" stroke-width="1" fill="none" fill-rule="evenodd" sketch:type="MSPage">
        <g id="Problem" sketch:type="MSArtboardGroup">
            <g id="Generic-issue" sketch:type="MSLayerGroup" transform="translate(1.000000, 1.000000)">
                <rect id="Rectangle-36" fill="#E3483A" sketch:type="MSShapeGroup" x="0" y="0" width="14" height="14" rx="2"></rect>
                <path d="M9.46882261,5.29513804 C9.80378033,5.77927472 10,6.36672258 10,7 C10,8.65685425 8.65685425,10 7,10 C6.36672258,10 5.77927472,9.80378033 5.29513804,9.46882261 L9.46882261,5.29513804 Z M8.77127633,4.57847075 C8.27489138,4.21476348 7.66252604,4 7,4 C5.34314575,4 4,5.34314575 4,7 C4,7.66252604 4.21476348,8.27489138 4.57847075,8.77127633 L8.77127633,4.57847075 Z M7,11 C9.209139,11 11,9.209139 11,7 C11,4.790861 9.209139,3 7,3 C4.790861,3 3,4.790861 3,7 C3,9.209139 4.790861,11 7,11 Z" id="Oval-8" fill="#FFFFFF" sketch:type="MSShapeGroup"></path>
            </g>
        </g>
    </g>
</svg>