<?xml version="1.0" encoding="UTF-8" standalone="no"?>
<svg width="16px" height="16px" viewBox="0 0 16 16" version="1.1" xmlns="http://www.w3.org/2000/svg" xmlns:xlink="http://www.w3.org/1999/xlink">
    <!-- Generator: Sketch 3.7.2 (28276) - http://www.bohemiancoding.com/sketch -->
    <title>Group</title>
    <desc>Created with Sketch.</desc>
    <defs>
        <path d="M0,1.99406028 C0,0.892771196 0.886554837,0 2.00591905,0 L4.99408095,0 C6.10191945,0 7,0.894513756 7,1.99406028 L7,14.0059397 C7,15.1072288 6.11344516,16 4.99408095,16 L2.00591905,16 C0.898080551,16 0,15.1054862 0,14.0059397 L0,1.99406028 Z M9,1.99406028 C9,0.892771196 9.88655484,0 11.0059191,0 L13.9940809,0 C15.1019194,0 16,0.894513756 16,1.99406028 L16,14.0059397 C16,15.1072288 15.1134452,16 13.9940809,16 L11.0059191,16 C9.89808055,16 9,15.1054862 9,14.0059397 L9,1.99406028 Z" id="path-1"></path>
        <mask id="mask-2" maskContentUnits="userSpaceOnUse" maskUnits="objectBoundingBox" x="0" y="0" width="16" height="16" fill="white">
            <use xlink:href="#path-1"></use>
        </mask>
        <polygon id="path-3" points="3 9.38461538 8 9.38461538 8 12.75 13 8.375 8 4 8 7.36538462 3 7.36538462"></polygon>
        <mask id="mask-4" maskContentUnits="userSpaceOnUse" maskUnits="objectBoundingBox" x="-1" y="-1" width="12" height="10.75">
            <rect x="2" y="3" width="12" height="10.75" fill="white"></rect>
            <use xlink:href="#path-3" fill="black"></use>
        </mask>
    </defs>
    <g id="Cross-product-icons" stroke="none" stroke-width="1" fill="none" fill-rule="evenodd">
        <g id="16/i0038_devtools-arrow-right">
            <g id="Group">
                <use id="Rectangle-98-Copy" stroke="#333333" mask="url(#mask-2)" stroke-width="2" xlink:href="#path-1"></use>
                <g id="i0038_devtools-arrow-right-16">
                    <use fill="#333333" fill-rule="evenodd" xlink:href="#path-3"></use>
                    <use stroke="#FFFFFF" mask="url(#mask-4)" stroke-width="2" xlink:href="#path-3"></use>
                </g>
            </g>
        </g>
    </g>
</svg>