<?xml version="1.0" encoding="utf-8"?>
<!-- Generator: Adobe Illustrator 18.1.1, SVG Export Plug-In . SVG Version: 6.00 Build 0)  -->
<svg version="1.1" id="Imac" xmlns="http://www.w3.org/2000/svg" xmlns:xlink="http://www.w3.org/1999/xlink" x="0px" y="0px"
	 viewBox="0 0 66 66" enable-background="new 0 0 66 66" xml:space="preserve">
<g>
	<rect x="15.6" y="6.6" fill="#EEF2F7" width="40.6" height="36.8"/>
</g>
<g>
	<path fill="#FFFFFF" d="M20.2,51h14.8c0,7.3,4,7.7,4,7.7l4.6,1c0.4,0.1,0.4,0.6,0,0.7l-15.2,2.1c-0.4,0.1-0.8,0-1.1-0.1l-2.2-0.7
		C25.1,61.6,20.2,60.7,20.2,51z"/>
	<path fill="#4273B3" d="M28.1,63.4c-0.4,0-0.8-0.1-1.1-0.2l-2.2-0.6c-0.1,0-5.6-1.2-5.6-11.6v-1h16.8l0,1c0,6.2,3.1,6.7,3.1,6.7
		l0.1,0l4.6,1c0.6,0.1,1.1,0.7,1.1,1.4s-0.5,1.2-1.2,1.3l-15.2,2.1C28.4,63.4,28.2,63.4,28.1,63.4z M21.2,52c0.3,7.7,3.9,8.6,4,8.7
		l2.3,0.7c0.3,0.1,0.5,0.1,0.7,0.1l11.6-1.6l-0.9-0.2c-0.6-0.1-4.5-1-4.8-7.7H21.2z"/>
</g>
<g>
	<path fill="#EEF2F7" d="M13.6,52.6c-2.6,0.3-4.8-1.7-4.8-4.3V8c0-2.6,2.3-4.6,4.8-4.3h2.8l-0.6,49L13.6,52.6z"/>
	<path fill="#4273B3" d="M16.8,53.7l-3.2-0.1c-1.6,0.2-3.2-0.4-4.3-1.5c-1-1-1.6-2.4-1.6-3.8V8c0-3.1,2.7-5.7,5.9-5.3h3.8L16.8,53.7
		z M13.6,51.6l1.3,0l0.6-46.9l-1.9,0C11.5,4.5,9.8,6,9.8,8v40.2c0,0.9,0.4,1.8,1,2.4C11.5,51.3,12.5,51.7,13.6,51.6L13.6,51.6z"/>
</g>
<g>
	<path fill="#FFFFFF" stroke="#4273B3" stroke-width="2" stroke-miterlimit="10" d="M9.4,10.7"/>
</g>
<g opacity="0.15">
	<path fill="#4273B3" d="M35.1,51H20.2c0,2.3,0.3,4.1,0.7,5.5l14.8-1.1C35.3,54.3,35.1,52.9,35.1,51z"/>
</g>
<g>
	<path fill="#FFFFFF" stroke="#4273B3" stroke-width="2" stroke-miterlimit="10" d="M12.8,10.5"/>
</g>
<g>
	<path fill="#FFFFFF" stroke="#4273B3" stroke-width="2" stroke-miterlimit="10" d="M12.8,43.4"/>
</g>
<g>
	<line fill="#FFFFFF" x1="30.1" y1="29.4" x2="36" y2="22.3"/>
	<path fill="#4273B3" d="M30.1,30.4c-0.2,0-0.4-0.1-0.6-0.2c-0.4-0.4-0.5-1-0.1-1.4l5.9-7.1c0.4-0.4,1-0.5,1.4-0.1
		c0.4,0.4,0.5,1,0.1,1.4l-5.9,7.1C30.7,30.3,30.4,30.4,30.1,30.4z"/>
</g>
<g>
	<line fill="#FFFFFF" x1="35.3" y1="29.4" x2="41.1" y2="22.3"/>
	<path fill="#4273B3" d="M35.3,30.4c-0.2,0-0.4-0.1-0.6-0.2c-0.4-0.4-0.5-1-0.1-1.4l5.9-7.1c0.4-0.4,1-0.5,1.4-0.1
		c0.4,0.4,0.5,1,0.1,1.4L36,30.1C35.8,30.3,35.5,30.4,35.3,30.4z"/>
</g>
<g>
	<path fill="#FFFFFF" d="M55,6.5L17,3.6c-2.2-0.2-4.2,1.5-4.2,3.7v41.6c0,2.2,1.9,4,4.2,3.7l38-2.9c1.3-0.1,2.2-1.2,2.2-2.5V9
		C57.2,7.7,56.3,6.7,55,6.5z M37.1,48.4c-0.8,0-1.5-0.8-1.5-1.7c0-0.9,0.7-1.7,1.5-1.7c0.8,0,1.5,0.8,1.5,1.7
		C38.6,47.6,37.9,48.4,37.1,48.4z M54.1,40.1c0,1.1-0.8,2-1.9,2.1l-31.6,1.3c-1.9,0.2-3.6-1.3-3.6-3.2V11.2c0-1.9,1.7-3.4,3.6-3.2
		l31.6,2.1c1.1,0.1,1.9,1,1.9,2.1V40.1z"/>
	<path fill="#4273B3" d="M16.6,53.7L16.6,53.7c-2.6,0-4.7-2.1-4.7-4.7V7.3c0-2.8,2.4-5,5.3-4.7l38,2.9c1.8,0.2,3.1,1.7,3.1,3.5v38.2
		c0,1.8-1.3,3.3-3.1,3.5l-38,2.9C16.9,53.7,16.8,53.7,16.6,53.7z M16.6,4.6c-1.5,0-2.7,1.2-2.7,2.7v41.6c0,1.6,1.4,2.9,3,2.7l38-2.9
		c0.7-0.1,1.3-0.7,1.3-1.5V9c0-0.8-0.6-1.4-1.3-1.5l-38-2.9C16.8,4.6,16.7,4.6,16.6,4.6z M37.1,49.4c-1.4,0-2.5-1.2-2.5-2.7
		s1.1-2.7,2.5-2.7s2.5,1.2,2.5,2.7S38.5,49.4,37.1,49.4z M37.1,46c-0.3,0-0.5,0.3-0.5,0.7s0.2,0.7,0.5,0.7s0.5-0.3,0.5-0.7
		S37.4,46,37.1,46z M20.2,44.5c-2.3,0-4.2-1.9-4.2-4.2V11.2c0-2.5,2.2-4.5,4.7-4.2l31.5,2.1c1.6,0.2,2.8,1.5,2.8,3.1v27.8
		c0,1.6-1.2,3-2.8,3.1l-31.7,1.3C20.5,44.5,20.4,44.5,20.2,44.5z M20.2,9C19,9,18,10,18,11.2v29.1c0,1.3,1.1,2.4,2.5,2.2l31.7-1.3
		c0.5-0.1,1-0.6,1-1.1V12.3c0-0.6-0.4-1.1-1-1.1L20.5,9C20.4,9,20.3,9,20.2,9z"/>
</g>
<g opacity="0.15">
	<rect x="50" y="10.5" fill="#4273B3" width="3.1" height="31.9"/>
</g>
</svg>
