<?xml version="1.0" encoding="utf-8"?>
<!-- Generator: Adobe Illustrator 18.1.1, SVG Export Plug-In . SVG Version: 6.00 Build 0)  -->
<svg version="1.1" id="Service_Desk" xmlns="http://www.w3.org/2000/svg" xmlns:xlink="http://www.w3.org/1999/xlink" x="0px"
	 y="0px" viewBox="0 0 841.9 595.3" enable-background="new 0 0 841.9 595.3" xml:space="preserve">
<g>
	<polygon fill="#EDF1F6" points="445.4,372.7 169.8,372.7 169.8,82.5 529.8,82.5 	"/>
</g>
<g>
	<g>
		<path fill="#4172B2" d="M656.3,456.1H187.9c-14.9,0-27.1-12.1-27.1-27.1V100.6c0-14.9,12.1-27.1,27.1-27.1h463.9
			c17.4,0,31.6,14.2,31.6,31.6v324C683.3,443.9,671.2,456.1,656.3,456.1z M187.9,91.5c-5,0-9,4-9,9V429c0,5,4,9,9,9h468.4
			c5,0,9-4,9-9v-324c0-7.5-6.1-13.5-13.5-13.5H187.9z"/>
	</g>
</g>
<g>
	<g>
		<path fill="#FFFFFF" d="M551.8,499.6H283c-1.1,0-2,0.9-2,2v35c0,1.1,0.9,2,2,2h268.8c1.1,0,2-0.9,2-2v-35
			C553.9,500.5,553,499.6,551.8,499.6z"/>
	</g>
	<g>
		<path fill="#4172B2" d="M535.4,547.7H299.4c-15.1,0-27.5-12.3-27.5-27.5v-2.2c0-15.1,12.3-27.5,27.5-27.5h236.1
			c15.1,0,27.5,12.3,27.5,27.5v2.2C562.9,535.4,550.6,547.7,535.4,547.7z M299.4,508.6c-5.2,0-9.4,4.2-9.4,9.4v2.2
			c0,5.2,4.2,9.4,9.4,9.4h236.1c5.2,0,9.4-4.2,9.4-9.4v-2.2c0-5.2-4.2-9.4-9.4-9.4H299.4z"/>
	</g>
</g>
<g>
	<rect x="169.8" y="362.8" fill="#4172B2" width="495.4" height="18"/>
</g>
<g>
	<rect x="342.7" y="448.6" fill="#EDF1F6" width="158.4" height="51.1"/>
	<path fill="#4172B2" d="M510.2,508.7H333.7v-69.1h176.4V508.7z M351.7,490.6h140.4v-33H351.7V490.6z"/>
</g>
<g opacity="0.15">
	<rect x="342.7" y="448.6" fill="#4172B2" width="158.4" height="51.1"/>
</g>
<g opacity="0.5">
	<circle fill="#4172B2" cx="419.6" cy="409.8" r="18"/>
</g>
</svg>
