<?xml version="1.0" encoding="UTF-8" standalone="no"?>
<svg width="47px" height="50px" viewBox="0 0 47 50" version="1.1" xmlns="http://www.w3.org/2000/svg" xmlns:xlink="http://www.w3.org/1999/xlink">
    <!-- Generator: Sketch 39.1 (31720) - http://www.bohemiancoding.com/sketch -->
    <title>Artboard 6</title>
    <desc>Created with Sketch.</desc>
    <defs></defs>
    <g id="Page-1" stroke="none" stroke-width="1" fill="none" fill-rule="evenodd">
        <g id="Artboard-6">
            <g id="Group-2" transform="translate(1.000000, 1.000000)">
                <g id="Group">
                    <path d="M15.631068,25.7621372 C13.7036893,25.7621372 11.8592233,25.4739875 10.1547573,24.9484574 L3.78959609,28.1108725 C2.80122946,28.6019246 2.32439487,28.1653694 2.72776882,27.1275336 L4.68932039,22.0806819 C1.79553398,19.7439252 0,16.4892058 0,12.8873347 C0,5.77689813 6.99728155,0.0125322245 15.631068,0.0125322245 C24.2648544,0.0125322245 31.2621359,5.77689813 31.2621359,12.8873347 C31.2621359,19.9963992 24.2648544,25.7621372 15.631068,25.7621372 Z" id="Stroke-105" stroke="#4268A0" stroke-width="1.5" stroke-linejoin="round" fill="#FFFFFF"></path>
                    <path d="M15.631068,23.4323297 C14.0736024,23.4323297 12.5831363,23.2038229 11.2058008,22.7870701 L6.41680035,25.1220535 C5.42232811,25.6069305 4.94620702,25.166626 5.35188574,24.1423135 L6.78932039,20.512884 C4.45092528,18.6598032 3,16.0787652 3,13.2224309 C3,7.58375513 8.65432503,3.01253222 15.631068,3.01253222 C22.6078109,3.01253222 28.2621359,7.58375513 28.2621359,13.2224309 C28.2621359,18.8600186 22.6078109,23.4323297 15.631068,23.4323297 Z" id="Stroke-105" fill="#F0F3F5"></path>
                </g>
                <g id="Group" transform="translate(32.500000, 37.307692) scale(-1, 1) translate(-32.500000, -37.307692) translate(19.000000, 24.307692)">
                    <path d="M13.9126214,20.9149246 C12.320439,20.9149246 10.7967497,20.6810174 9.38871254,20.2544153 L3.78322378,22.84246 C2.78063996,23.3053512 2.3719383,22.8805134 2.8714015,21.8915019 L4.87378641,17.9264818 C2.4832672,16.0296058 1,13.3875684 1,10.4637284 C1,4.69178995 6.78036302,0.0125322245 13.9126214,0.0125322245 C21.0448797,0.0125322245 26.8252427,4.69178995 26.8252427,10.4637284 C26.8252427,16.2345531 21.0448797,20.9149246 13.9126214,20.9149246 Z" id="Stroke-105" stroke="#4268A0" stroke-width="1.5" stroke-linejoin="round" fill="#FFFFFF"></path>
                    <path d="M13.9126214,18.61604 C12.690352,18.61604 11.5206627,18.4414297 10.439756,18.1229738 L6.56116266,19.8643182 C5.55702778,20.3151375 5.15217336,19.8927538 5.66323468,18.9086906 L6.97378641,16.3851857 C5.13865851,14.9691794 4,12.9969147 4,10.8142861 C4,6.50556943 8.4374065,3.01253222 13.9126214,3.01253222 C19.3878362,3.01253222 23.8252427,6.50556943 23.8252427,10.8142861 C23.8252427,15.1221713 19.3878362,18.61604 13.9126214,18.61604 Z" id="Stroke-105" fill="#F0F3F5"></path>
                </g>
                <g id="Stroke-44-+-Stroke-45-+-Stroke-46" transform="translate(28.055016, 32.357588)" stroke-linecap="round" stroke-width="1.9656" stroke="#4268A0" stroke-linejoin="round">
                    <polyline id="Stroke-45" points="9 0 2.84138241 6 0 2.99999986"></polyline>
                </g>
                <g id="Stroke-122-+-Stroke-123-+-Stroke-124" transform="translate(12.048544, 7.592516)" stroke="#4268A0" stroke-linejoin="round">
                    <path d="M4,10.5 C4,10.776 3.776,11 3.5,11 C3.224,11 3,10.776 3,10.5 C3,10.224 3.224,10 3.5,10 C3.776,10 4,10.224 4,10.5 L4,10.5 Z" id="Stroke-124" fill="#4268A0"></path>
                    <path d="M0.951456311,3.30485594 C0.951456311,1.46041459 1.79445631,0.407484407 3.45145631,0.407484407 C5.10745631,0.407484407 5.95145631,1.06304306 5.95145631,2.90748441 C5.95145631,4.75192576 3.45145631,5.40748441 3.45145631,5.40748441 L3.45145631,5.6251446 L3.45145631,7.90748453" id="Stroke-123" stroke-width="1.57248" stroke-linecap="round"></path>
                </g>
            </g>
        </g>
    </g>
</svg>