<?xml version="1.0" encoding="utf-8"?>
<!-- Generator: Adobe Illustrator 19.0.1, SVG Export Plug-In . SVG Version: 6.00 Build 0)  -->
<svg version="1.1" id="Layer_1" xmlns="http://www.w3.org/2000/svg" xmlns:xlink="http://www.w3.org/1999/xlink" x="0px" y="0px"
	 viewBox="0 0 147.5 114.3" style="enable-background:new 0 0 147.5 114.3;" xml:space="preserve">
<style type="text/css">
	.st0{fill:#138A44;}
	.st1{fill:#D55140;}
	.st2{fill:#EA632A;}
	.st3{fill:#F15D74;}
	.st4{fill:#78C3A2;}
	.st5{fill:#644A83;}
	.st6{fill:#D24537;}
	.st7{fill:#D49D3F;}
	.st8{fill:#175182;}
</style>
<path class="st5" d="M75,0.2c2.5,0.6,3.8,2.5,3.8,5.9v102.2c0,3.4-1.3,5.3-3.8,5.9c-2.5,0.6-5-0.1-7.5-2.1
	c-3.9-3.1-9.7-8.5-17.4-16.3c-7.7-7.8-13.5-13.1-17.4-15.9h-4.2H6.3c-1.7,0-3.1-0.6-4.4-1.9C0.6,76.6,0,75.2,0,73.5V40.4
	c0-1.7,0.6-3.1,1.9-4.4c1.3-1.3,2.7-1.9,4.4-1.9h26.8c3.9-2.8,9.6-8.1,17.2-15.9c7.5-7.8,13.3-13.1,17.2-15.9
	C70,0.3,72.5-0.4,75,0.2z M108.1,86.5c2-1.4,3.7-2.9,5.2-4.4c1.5-1.5,2.9-3.3,4.2-5.2c1.3-2,2.4-4,3.4-6.3c1-2.2,1.7-4.5,2.3-6.7
	c0.6-2.5,0.8-4.9,0.8-7.1c0-2.2-0.3-4.6-0.8-7.1c-0.6-2.2-1.3-4.5-2.3-6.7c-1-2.2-2.1-4.3-3.4-6.3c-1.3-2-2.7-3.6-4.4-5
	c-3.1-3.4-6.8-6-11.3-8c-3.4-1.4-5.8-0.3-7.3,3.1c-1.5,3.5-0.5,6.1,3.1,7.8c2.8,1.1,5.3,2.8,7.5,5c1.1,1.1,2.1,2.4,2.9,3.8
	c0.8,1.4,1.5,2.7,2.1,3.8c0.8,1.7,1.4,3.3,1.7,4.8c0.3,1.5,0.4,3.1,0.4,4.8s-0.1,3.4-0.4,5c-0.3,1.4-0.8,2.9-1.7,4.6
	c-0.6,1.4-1.3,2.7-2.1,3.8c-0.8,1.4-1.8,2.7-2.9,3.8c-1.1,1.1-2.4,2.1-3.8,2.9c-1.4,0.8-2.7,1.5-3.8,2.1c-3.6,1.7-4.7,4.3-3.1,7.8
	c1.5,3.5,4,4.5,7.3,3.1C104,89,106.1,87.9,108.1,86.5z M121.9,104.1c3.1-2,5.9-4.3,8.6-6.9c2.7-2.7,5-5.5,7.1-8.6
	c2.1-3.1,3.8-6.3,5.2-9.6c1.4-3.4,2.5-7,3.4-10.9c0.8-3.9,1.3-7.7,1.3-11.3c0-3.6-0.4-7.3-1.3-11.1c-0.8-3.8-2-7.5-3.4-11.1
	c-1.4-3.4-3.2-6.6-5.4-9.6c-2-3.1-4.3-5.9-6.9-8.6c-2.7-2.7-5.5-5-8.6-6.9c-2.8-2-6-3.6-9.6-5c-3.4-1.7-5.8-0.7-7.3,2.9
	c-1.5,3.6-0.5,6.1,3.1,7.5c2.5,1.1,5,2.5,7.5,4.2s4.8,3.6,6.9,5.7c2.1,2.1,3.9,4.3,5.4,6.7c1.5,2.4,2.9,5,4,7.8
	c1.4,2.8,2.4,5.6,2.9,8.4c0.6,3.1,0.8,6.1,0.8,9.2c0,3.1-0.3,6.1-0.8,9.2c-0.6,2.8-1.5,5.6-2.9,8.4c-1.1,2.8-2.5,5.4-4.2,8
	c-1.4,2.2-3.1,4.4-5.2,6.5c-2.1,2.1-4.4,4-6.9,5.7s-5,3.1-7.5,4.2c-3.6,1.4-4.7,3.9-3.1,7.5c1.5,3.6,4,4.8,7.3,3.4
	C115.9,107.9,119.1,106,121.9,104.1z"/>
</svg>
