<?xml version="1.0" encoding="utf-8"?>
<!-- Generator: Adobe Illustrator 19.0.1, SVG Export Plug-In . SVG Version: 6.00 Build 0)  -->
<svg version="1.1" id="Layer_1" xmlns="http://www.w3.org/2000/svg" xmlns:xlink="http://www.w3.org/1999/xlink" x="0px" y="0px"
	 viewBox="0 0 122.3 132.4" style="enable-background:new 0 0 122.3 132.4;" xml:space="preserve">
<style type="text/css">
	.st0{fill:#138A44;}
	.st1{fill:#D55140;}
	.st2{fill:#EA632A;}
	.st3{fill:#F15D74;}
	.st4{fill:#78C3A2;}
	.st5{fill:#644A83;}
	.st6{fill:#D24537;}
	.st7{fill:#D49D3F;}
	.st8{fill:#175182;}
</style>
<path class="st1" d="M117.9,42.1c2.9,2.9,4.4,6.6,4.4,11.1v63.7c0,4.2-1.5,7.8-4.4,10.9c-2.9,3.1-6.6,4.6-11.1,4.6H15.5
	c-4.5,0-8.2-1.5-11.1-4.6c-2.9-3.1-4.4-6.7-4.4-10.9V53.2c0-4.5,1.5-8.2,4.4-11.1c2.9-2.9,6.6-4.4,11.1-4.4h91.3
	C111.3,37.7,115,39.2,117.9,42.1z M10.1,47.8c-1.4,1.4-2.1,3.1-2.1,5v20.1h49.4V45.7H15.5C13.3,45.7,11.4,46.4,10.1,47.8z
	 M10.1,122.1c1.4,1.5,3.2,2.3,5.4,2.3h41.9V80.9H8v36C8,118.8,8.7,120.6,10.1,122.1z M103.5,5c3.1,3.4,4.6,7.4,4.6,12.1
	c0,5.9-1.7,10.1-5,12.8c-3.4,2.7-7,4-10.9,4H67H55.3H30.2c-3.9,0-7.5-1.3-10.9-4c-3.4-2.7-5-6.9-5-12.8c0-4.7,1.5-8.8,4.6-12.1
	c3.1-3.4,6.8-5,11.3-5c11.7,0,22.1,7.4,31,22.2C70.1,7.4,80.4,0,92.2,0C96.6,0,100.4,1.7,103.5,5z M54,26C46.8,14,38.8,8,30.2,8
	c-2.2,0-4.1,0.9-5.7,2.7c-1.5,1.8-2.3,4-2.3,6.5c0,5.9,2.7,8.8,8,8.8H54z M112.3,47.8c-1.4-1.4-3.2-2.1-5.4-2.1H65.4v27.2h49V53.2
	C114.4,51,113.7,49.2,112.3,47.8z M112.3,122.1c1.4-1.5,2.1-3.3,2.1-5.2v-36h-49v43.6h41.5C109.1,124.4,110.9,123.7,112.3,122.1z
	 M100.1,17.2c0-2.5-0.8-4.7-2.3-6.5C96.3,8.9,94.4,8,92.2,8c-8.7,0-16.6,6-23.9,18h23.9C97.5,26,100.1,23,100.1,17.2z"/>
</svg>
