<?xml version="1.0" encoding="utf-8"?>
<!-- Generator: Adobe Illustrator 19.0.1, SVG Export Plug-In . SVG Version: 6.00 Build 0)  -->
<svg version="1.1" id="Layer_1" xmlns="http://www.w3.org/2000/svg" xmlns:xlink="http://www.w3.org/1999/xlink" x="0px" y="0px"
	 viewBox="0 0 147.8 110" style="enable-background:new 0 0 147.8 110;" xml:space="preserve">
<style type="text/css">
	.st0{fill:#138A44;}
	.st1{fill:#D55140;}
	.st2{fill:#EA632A;}
	.st3{fill:#F15D74;}
	.st4{fill:#78C3A2;}
	.st5{fill:#644A83;}
	.st6{fill:#D24537;}
	.st7{fill:#D49D3F;}
	.st8{fill:#175182;}
</style>
<path class="st3" d="M146.8,53c-1.7,2.2-3.6,2.7-5.9,1.3l-6.3-3.8l-2.9-2.5l-10.9-7.1l-44-29.3c-0.3,0-0.4-0.1-0.4-0.4l-1.3-0.8
	l-1.3,0.8l-0.4,0.4l-37.7,23L27,40.8l-10.9,7.5l-2.9,2.1l-5.4,3.8c-0.8,0.6-1.8,0.8-2.9,0.8c-1.4,0-2.7-0.7-3.8-2.1
	c-1.7-2.5-1.3-4.7,1.3-6.7L72.2,1c2-1.4,3.8-1.4,5.4,0l67.9,45.2C148.1,48.2,148.5,50.5,146.8,53z M118.7,49.6l7.1,5.4v44
	c0,3.1-1.1,5.7-3.4,7.8c-2.2,2.1-4.8,3.1-7.5,3.1H32.8c-3.1,0-5.7-1-7.8-3.1c-2.1-2.1-3.1-4.7-3.1-7.8V54.3l7.1-4.6l2.5-2.1v2.1
	v50.7h30.6V72.7c0-2,0.6-3.6,1.7-4.8c1.1-1.3,2.7-1.9,4.6-1.9h10.9c2,0,3.5,0.6,4.6,1.9c1.1,1.3,1.7,2.9,1.7,4.8v27.7h30.2V49.6
	v-2.1L118.7,49.6z"/>
</svg>
