<?xml version="1.0" encoding="utf-8"?>
<!-- Generator: Adobe Illustrator 19.0.1, SVG Export Plug-In . SVG Version: 6.00 Build 0)  -->
<svg version="1.1" id="Layer_1" xmlns="http://www.w3.org/2000/svg" xmlns:xlink="http://www.w3.org/1999/xlink" x="0px" y="0px"
	 viewBox="0 0 135.7 135.6" style="enable-background:new 0 0 135.7 135.6;" xml:space="preserve">
<style type="text/css">
	.st0{fill:#138A44;}
	.st1{fill:#D55140;}
	.st2{fill:#EA632A;}
	.st3{fill:#F15D74;}
	.st4{fill:#78C3A2;}
	.st5{fill:#644A83;}
	.st6{fill:#D24537;}
	.st7{fill:#D49D3F;}
	.st8{fill:#175182;}
</style>
<path class="st0" d="M63.8,15c1.1-0.6,2.7,0.2,4.8,2.3c2.1,2.1,2.9,3.7,2.3,4.8c-1.4,2.2-3.1,4.5-5,6.7l22.2,5L117,4.5
	c2.5-2.5,5.4-4,8.8-4.4c3.4-0.4,5.9,0.3,7.8,2.1c1.8,1.8,2.5,4.4,2.1,7.8c-0.4,3.4-1.9,6.3-4.4,8.8l-29.3,28.9l5,22.6
	c2.2-2.2,4.5-4,6.7-5.4c1.1-0.6,2.7,0.2,4.8,2.3c2.1,2.1,2.9,3.7,2.3,4.8c-1.7,2.8-3.9,5.4-6.7,8c-1.4,1.4-2.8,2.7-4.2,3.8l5,23.9
	c0.8,4.2,0.8,7.6-0.2,10.3c-1,2.7-3.4,5.5-7.3,8.6c-2.8,2.5-5.2,2.7-7.1,0.4c-2-2.2-4.2-6.3-6.7-12.1c-0.3-0.6-0.6-1-0.8-1.3
	L75.9,74.1c-11.2,10.6-21.4,19.4-30.6,26.4c-1.7,1.1-2.2,2.7-1.7,4.6l4.2,19.7c0.8,3.9-0.4,7.3-3.8,10.1c-1.7,1.1-3,1.1-4,0
	c-1-1.1-2.2-3.2-3.6-6.3c0-0.3-0.1-0.6-0.4-0.8l-6.7-16.8c-2.8,1.4-4.9,2-6.3,1.7c-0.3-1.4,0.3-3.5,1.7-6.3L8,99.6
	c-0.3-0.3-0.6-0.4-0.8-0.4c-1.4-0.8-2.4-1.4-3.1-1.7c-0.7-0.3-1.6-0.8-2.7-1.5c-1.1-0.7-1.5-1.3-1.3-1.9c0.3-0.6,0.6-1.4,0.8-2.5
	C3.7,88.3,7.1,87,11,87.9l19.7,4.2c2,0.6,3.5,0,4.6-1.7c7-9.2,15.8-19.4,26.4-30.6L22.3,43.1c-0.3-0.3-0.7-0.6-1.3-0.8
	c-2-0.8-3.4-1.5-4.4-1.9c-1-0.4-2.2-1-3.8-1.9c-1.5-0.8-2.6-1.6-3.1-2.3c-0.6-0.7-1.1-1.5-1.7-2.3c-0.6-0.8-0.7-1.7-0.4-2.5
	c0.3-0.8,0.8-1.8,1.7-2.9c3.1-3.9,5.9-6.3,8.6-7.3c2.7-1,6.1-1,10.3-0.2l23.9,5c1.1-1.4,2.4-2.8,3.8-4.2C58.3,18.9,61,16.7,63.8,15z
	"/>
</svg>
