<?xml version="1.0" encoding="utf-8"?>
<!-- Generator: Adobe Illustrator 19.0.1, SVG Export Plug-In . SVG Version: 6.00 Build 0)  -->
<svg version="1.1" id="Layer_1" xmlns="http://www.w3.org/2000/svg" xmlns:xlink="http://www.w3.org/1999/xlink" x="0px" y="0px"
	 viewBox="0 0 147.5 136.6" style="enable-background:new 0 0 147.5 136.6;" xml:space="preserve">
<style type="text/css">
	.st0{fill:#138A44;}
	.st1{fill:#D55140;}
	.st2{fill:#EA632A;}
	.st3{fill:#F15D74;}
	.st4{fill:#78C3A2;}
	.st5{fill:#644A83;}
	.st6{fill:#D24537;}
	.st7{fill:#D49D3F;}
	.st8{fill:#175182;}
</style>
<path class="st4" d="M144.7,42.7c1.8,1.7,2.7,3.8,2.7,6.3v56.6c0,2.5-0.9,4.7-2.7,6.5c-1.8,1.8-4,2.7-6.5,2.7h-17.2v8
	c0,3.9-1.3,7.2-4,9.8c-2.7,2.7-5.9,4-9.8,4h-67c-3.9,0-7.2-1.3-9.8-4c-2.7-2.7-4-5.9-4-9.8v-8H9.2c-2.5,0-4.7-0.9-6.5-2.7
	c-1.8-1.8-2.7-4-2.7-6.5V49c0-2.5,0.9-4.6,2.7-6.3c1.8-1.7,4-2.5,6.5-2.5h10.9V13.8c0-3.9,1.3-7.2,4-9.8c2.7-2.7,5.9-4,9.8-4h79.6
	c3.9,0,7.2,1.3,9.8,4c2.7,2.7,4,5.9,4,9.8v26.4h10.9C140.8,40.2,142.9,41.1,144.7,42.7z M138.3,49H9.2v56.6h17.2V81.3h94.7v24.3
	h17.2V49z M29.3,39.8h88.8v-26c0-1.4-0.4-2.5-1.3-3.4s-2-1.3-3.4-1.3H33.9c-1.4,0-2.5,0.4-3.4,1.3s-1.3,2-1.3,3.4V39.8z M111.9,90.5
	H35.6v32.3c0,1.4,0.4,2.5,1.3,3.4s2,1.3,3.4,1.3h67c1.4,0,2.5-0.4,3.4-1.3s1.3-2,1.3-3.4V90.5z M118.8,62c1.5,0,2.8,0.5,3.8,1.5
	c1,1,1.5,2.2,1.5,3.8c0,1.5-0.5,2.9-1.5,4c-1,1.1-2.2,1.7-3.8,1.7c-1.5,0-2.9-0.6-4-1.7c-1.1-1.1-1.7-2.4-1.7-4
	c0-1.5,0.6-2.8,1.7-3.8C115.9,62.5,117.2,62,118.8,62z"/>
</svg>
