<?xml version="1.0" encoding="utf-8"?>
<!-- Generator: Adobe Illustrator 19.0.1, SVG Export Plug-In . SVG Version: 6.00 Build 0)  -->
<svg version="1.1" id="Layer_1" xmlns="http://www.w3.org/2000/svg" xmlns:xlink="http://www.w3.org/1999/xlink" x="0px" y="0px"
	 viewBox="0 0 87.8 147.5" style="enable-background:new 0 0 87.8 147.5;" xml:space="preserve">
<style type="text/css">
	.st0{fill:#138A44;}
	.st1{fill:#D55140;}
	.st2{fill:#EA632A;}
	.st3{fill:#F15D74;}
	.st4{fill:#78C3A2;}
	.st5{fill:#644A83;}
	.st6{fill:#D24537;}
	.st7{fill:#D49D3F;}
	.st8{fill:#175182;}
</style>
<path class="st5" d="M68.7,29.7c-7.3,9.8-12.6,17.3-15.9,22.6h29.3c1.4,0,2.2,0.4,2.5,1.3c0.8,1.7-1.3,5.4-6.3,11.3l-0.8,0.8
	C73,71.1,66,79,56.6,89.7c-22.9,25.7-39.5,44.7-49.9,57c-0.3,0.6-0.6,0.8-0.8,0.8c-0.3,0-0.6-0.1-0.8-0.4c-0.6-0.3-0.7-0.8-0.4-1.7
	c6.4-13.7,14.8-34.2,25.1-61.6H1.3c-0.3,0-0.6-0.2-0.8-0.6c-0.3-0.4-0.4-0.8-0.4-1c2.8-7.3,7-18,12.6-32.3
	c8.4-21.2,14.4-37.4,18-48.6C30.6,0.4,31,0,31.8,0h54.9c0.6,0,0.9,0.3,1,0.8c0.1,0.6,0.1,1-0.2,1.3C83.9,8.8,77.6,18,68.7,29.7z"/>
</svg>
