<?xml version="1.0" encoding="utf-8"?>
<!-- Generator: Adobe Illustrator 19.0.1, SVG Export Plug-In . SVG Version: 6.00 Build 0)  -->
<svg version="1.1" id="Layer_1" xmlns="http://www.w3.org/2000/svg" xmlns:xlink="http://www.w3.org/1999/xlink" x="0px" y="0px"
	 viewBox="0 0 147.5 112.3" style="enable-background:new 0 0 147.5 112.3;" xml:space="preserve">
<style type="text/css">
	.st0{fill:#138A44;}
	.st1{fill:#D55140;}
	.st2{fill:#EA632A;}
	.st3{fill:#F15D74;}
	.st4{fill:#78C3A2;}
	.st5{fill:#644A83;}
	.st6{fill:#D24537;}
	.st7{fill:#D49D3F;}
	.st8{fill:#175182;}
</style>
<path class="st3" d="M147.5,23v82.5c0,1.7-0.8,2.9-2.3,3.8c-1.5,0.8-3.1,1-4.8,0.4c-8.4-3.9-18.2-5.9-29.3-5.9
	c-11.7,0-23,2.5-33.9,7.5c-0.8,0.3-1.7,0.6-2.5,0.8c-0.3,0-0.6,0-0.8,0c-0.3,0-0.6,0-0.8,0h-0.4c-0.3-0.3-0.6-0.4-0.8-0.4
	c-11.2-5.3-22.9-8-35.2-8c-11.7,0-21.5,2-29.3,5.9c-1.7,0.6-3.3,0.4-4.8-0.4c-1.5-0.8-2.3-2.1-2.3-3.8V23c0-1.4,0.6-2.5,1.7-3.4
	C12,9.1,23.9,3.8,37.3,3.8c12.3,0,24.3,4.3,36,13C85,5.6,99.6,0,116.9,0c4.2,0,8.5,0.4,13,1.3c2.5,0.3,3.8,1.8,3.8,4.6v4.6
	c4.5,2.2,8.5,5.3,12.1,9.2C146.9,20.5,147.5,21.6,147.5,23z M36.4,94.3c11.2,0,22.1,2.1,32.7,6.3v-75v-0.4
	c-10.6-7.8-21.2-11.7-31.8-11.7c-10.1,0-19.3,3.9-27.7,11.7v73.3C18.3,95.7,27.2,94.3,36.4,94.3z M78.8,96.8
	c12-9.5,25.4-14.2,40.2-14.2c2,0,3.8,0.1,5.4,0.4V10.1c-2.5-0.3-5-0.4-7.5-0.4c-15.6,0-28.4,5-38.1,15.1V96.8z M137.8,25.1
	c-1.4-1.4-2.8-2.7-4.2-3.8v67c0,1.4-0.6,2.6-1.7,3.6c-1.1,1-2.5,1.2-4.2,0.6c-3.6-0.3-6.6-0.4-8.8-0.4c-6.1,0-12,1-17.6,2.9
	c3.1-0.6,6.3-0.8,9.6-0.8c9.2,0,18.2,1.4,26.8,4.2V25.1z"/>
</svg>
