<?xml version="1.0" encoding="utf-8"?>
<!-- Generator: Adobe Illustrator 19.0.1, SVG Export Plug-In . SVG Version: 6.00 Build 0)  -->
<svg version="1.1" id="Layer_1" xmlns="http://www.w3.org/2000/svg" xmlns:xlink="http://www.w3.org/1999/xlink" x="0px" y="0px"
	 viewBox="0 0 147.5 147.5" style="enable-background:new 0 0 147.5 147.5;" xml:space="preserve">
<style type="text/css">
	.st0{fill:#138A44;}
	.st1{fill:#D55140;}
	.st2{fill:#EA632A;}
	.st3{fill:#F15D74;}
	.st4{fill:#78C3A2;}
	.st5{fill:#644A83;}
	.st6{fill:#D24537;}
	.st7{fill:#D49D3F;}
	.st8{fill:#175182;}
</style>
<path class="st2" d="M147.5,73.7c0,20.4-7.2,37.8-21.6,52.2c-14.4,14.4-31.8,21.6-52.2,21.6c-20.4,0-37.8-7.2-52.2-21.6
	C7.2,111.5,0,94.1,0,73.7C0,53.3,7.2,36,21.6,21.6C36,7.2,53.3,0,73.7,0c20.4,0,37.8,7.2,52.2,21.6C140.3,36,147.5,53.3,147.5,73.7z
	 M138.3,73.7c0-17.9-6.3-33.1-18.9-45.7S91.6,9.2,73.7,9.2c-17.9,0-33.1,6.3-45.7,18.9S9.2,55.9,9.2,73.7c0,17.9,6.3,33.1,18.9,45.7
	s27.8,18.9,45.7,18.9c17.9,0,33.1-6.3,45.7-18.9S138.3,91.6,138.3,73.7z M92.6,73.7c0,5.3-1.8,9.8-5.4,13.4
	c-3.6,3.6-8.1,5.4-13.4,5.4c-5.3,0-9.8-1.8-13.4-5.4c-3.6-3.6-5.4-8.1-5.4-13.4c0-5.3,1.8-9.8,5.4-13.4c3.6-3.6,8.1-5.4,13.4-5.4
	c5.3,0,9.8,1.8,13.4,5.4C90.8,64,92.6,68.4,92.6,73.7z M83.8,73.7c0-2.8-1-5.2-2.9-7.1c-2-2-4.3-2.9-7.1-2.9c-2.8,0-5.2,1-7.1,2.9
	c-2,2-2.9,4.3-2.9,7.1c0,2.8,1,5.2,2.9,7.1c2,2,4.3,2.9,7.1,2.9c2.8,0,5.2-1,7.1-2.9C82.8,78.9,83.8,76.5,83.8,73.7z M84.6,51.5
	c-0.3,0-0.4-0.3-0.4-0.8l14.7-29.3c0.3-0.3,0.5-0.4,0.6-0.4c0.1,0,0.3,0,0.6,0c3.4,1.7,6.4,3.5,9.2,5.4c0.3,0.6,0.3,1,0,1.3L89.7,54
	c-0.3,0-0.6,0-0.8,0h-0.4C87.3,53.2,86,52.4,84.6,51.5z M132.8,73.7c0,0.6-0.3,0.8-0.8,0.8H99.3c-0.6,0-0.8-0.3-0.8-0.8
	c0-6.7-2.4-12.6-7.1-17.6c-0.6-0.3-0.6-0.6,0-0.8l23-23.5c0.3-0.3,0.7-0.3,1.3,0C127.1,43.6,132.8,57.5,132.8,73.7z"/>
</svg>
