<?xml version="1.0" encoding="utf-8"?>
<!-- Generator: Adobe Illustrator 19.0.1, SVG Export Plug-In . SVG Version: 6.00 Build 0)  -->
<svg version="1.1" id="Layer_1" xmlns="http://www.w3.org/2000/svg" xmlns:xlink="http://www.w3.org/1999/xlink" x="0px" y="0px"
	 viewBox="0 0 145.7 144.4" style="enable-background:new 0 0 145.7 144.4;" xml:space="preserve">
<style type="text/css">
	.st0{fill:#138A44;}
	.st1{fill:#D55140;}
	.st2{fill:#EA632A;}
	.st3{fill:#F15D74;}
	.st4{fill:#78C3A2;}
	.st5{fill:#644A83;}
	.st6{fill:#D24537;}
	.st7{fill:#D49D3F;}
	.st8{fill:#175182;}
</style>
<path class="st7" d="M1.2,117.7c-1.7-2-1.6-3.8,0.2-5.7c1.8-1.8,3.6-1.7,5.2,0.2l25.6,25.1c1.7,2,1.6,3.8-0.2,5.7
	c-1.8,1.8-3.6,1.7-5.2-0.2L1.2,117.7z M19.2,142.9c-5,1.7-9.7,0.4-14-4c-4.3-4.3-5.7-8.9-4-13.6L19.2,142.9z M38.9,137.4L6.7,105.2
	c-1.7-1.7-1.6-3.4,0.2-5.2c1.8-1.8,3.6-1.9,5.2-0.2L44.4,132c2,2,2,3.8,0.2,5.7C42.7,139.4,40.9,139.4,38.9,137.4z M48.1,128.6
	L15.9,96.4c-2-2-2-3.8-0.2-5.7c1.8-1.8,3.7-1.7,5.7,0.2l32.3,32.3c1.7,1.7,1.6,3.4-0.2,5.2C51.5,130.2,49.8,130.3,48.1,128.6z
	 M90.7,0c15.2,0,28.2,5.4,39,16.1c10.7,10.8,16.1,23.7,16.1,38.8s-5.4,28.1-16.3,39s-24.2,16.2-39.8,15.9c-5,0.6-11.7,4.6-20.1,12.1
	c-2.5,2.2-5,2.1-7.3-0.4c-2.4-2.5-2.3-4.9,0.2-7.1c10.3-9.2,19.4-14.1,27.2-14.7c12.8,0.3,23.7-4.2,32.7-13.4
	c8.9-8.7,13.4-19.1,13.4-31.4c0-12.3-4.4-22.8-13.2-31.6c-8.8-8.8-19.4-13.2-31.8-13.2c-12.4,0-23,4.3-31.6,13
	c-8.9,9.2-13.3,20.3-13,33.1C45.5,64,40.4,72.9,31,83c-2.2,2.5-4.6,2.7-7.1,0.4c-2.5-2.2-2.5-4.6,0-7.1C31.4,67.9,35.4,61,36,55.7
	c-0.3-15.6,5-28.9,15.9-39.8C62.5,5.3,75.4,0,90.7,0z"/>
</svg>
