<?xml version="1.0" encoding="utf-8"?>
<!-- Generator: Adobe Illustrator 19.0.1, SVG Export Plug-In . SVG Version: 6.00 Build 0)  -->
<svg version="1.1" id="Layer_1" xmlns="http://www.w3.org/2000/svg" xmlns:xlink="http://www.w3.org/1999/xlink" x="0px" y="0px"
	 viewBox="0 0 122.3 139.1" style="enable-background:new 0 0 122.3 139.1;" xml:space="preserve">
<style type="text/css">
	.st0{fill:#138A44;}
	.st1{fill:#D55140;}
	.st2{fill:#EA632A;}
	.st3{fill:#F15D74;}
	.st4{fill:#78C3A2;}
	.st5{fill:#644A83;}
	.st6{fill:#D24537;}
	.st7{fill:#D49D3F;}
	.st8{fill:#175182;}
</style>
<path class="st2" d="M119.2,19.9c2.1,2.1,3.1,4.8,3.1,8.2v9.6V39H0v-1.3v-9.6c0-3.4,1-6.1,3.1-8.2c2.1-2.1,4.7-3.1,7.8-3.1h18.4V4.2
	c0-2.8,1.3-4.2,4-4.2c2.7,0,4,1.4,4,4.2v12.6H85V4.2C85,1.4,86.4,0,89,0c2.7,0,4,1.4,4,4.2v12.6h18.4
	C114.5,16.8,117.1,17.8,119.2,19.9z M122.3,44.4v83.4c0,3.1-1,5.7-3.1,8c-2.1,2.2-4.7,3.4-7.8,3.4H10.9c-3.1,0-5.7-1.1-7.8-3.4
	c-2.1-2.2-3.1-4.9-3.1-8V44.4H122.3z M30.6,52.8H8.4V75h22.2V52.8z M30.6,80.9H8.4v22.2h22.2V80.9z M30.6,108.5H8.4v22.2h22.2V108.5
	z M41.5,27.7c0-3.1-1.4-5.4-4.2-7.1v7.1c0,2.8-1.3,4.2-4,4.2c-2.7,0-4-1.4-4-4.2v-7.1c-2.8,1.7-4.2,4.1-4.2,7.1
	c0,2.5,0.8,4.5,2.3,6.1c1.5,1.5,3.5,2.3,5.9,2.3c2.4,0,4.3-0.8,5.9-2.3C40.7,32.2,41.5,30.2,41.5,27.7z M58.2,52.8H36V75h22.2V52.8z
	 M58.2,80.9H36v22.2h22.2V80.9z M58.2,108.5H36v22.2h22.2V108.5z M86.3,52.8H64.1V75h22.2V52.8z M86.3,80.9H64.1v22.2h22.2V80.9z
	 M86.3,108.5H64.1v22.2h22.2V108.5z M97.2,27.7c0-3.1-1.4-5.4-4.2-7.1v7.1c0,2.8-1.3,4.2-4,4.2c-2.7,0-4-1.4-4-4.2v-7.1
	c-2.8,1.7-4.2,4.1-4.2,7.1c0,2.5,0.8,4.5,2.3,6.1c1.5,1.5,3.5,2.3,5.9,2.3c2.4,0,4.3-0.8,5.9-2.3C96.4,32.2,97.2,30.2,97.2,27.7z
	 M114,52.8H91.7V75H114V52.8z M114,80.9H91.7v22.2H114V80.9z M114,108.5H91.7v22.2H114V108.5z"/>
</svg>
