<?xml version="1.0" encoding="utf-8"?>
<!-- Generator: Adobe Illustrator 19.0.1, SVG Export Plug-In . SVG Version: 6.00 Build 0)  -->
<svg version="1.1" id="Layer_1" xmlns="http://www.w3.org/2000/svg" xmlns:xlink="http://www.w3.org/1999/xlink" x="0px" y="0px"
	 viewBox="0 0 141.6 142.4" style="enable-background:new 0 0 141.6 142.4;" xml:space="preserve">
<style type="text/css">
	.st0{fill:#138A44;}
	.st1{fill:#D55140;}
	.st2{fill:#EA632A;}
	.st3{fill:#F15D74;}
	.st4{fill:#78C3A2;}
	.st5{fill:#644A83;}
	.st6{fill:#D24537;}
	.st7{fill:#D49D3F;}
	.st8{fill:#175182;}
</style>
<path class="st4" d="M141.6,26.4c0,7.3-2.6,13.5-7.8,18.6c-5.2,5.2-11.4,7.8-18.6,7.8c-0.8,0-2.1-0.1-3.8-0.4c-0.8,0-1.4,0-1.7,0
	c-1.1,0-2.1,0-2.9,0c-0.8,0.3-1.7,0.7-2.5,1.3c-0.3,0-0.6,0.1-0.8,0.4c-0.6,0.3-1.1,0.7-1.7,1.3l-46.5,46.5
	c-0.3,0.3-0.6,0.7-0.8,1.3l-0.8,0.8c-0.3,0.6-0.6,1.1-0.8,1.7c-0.3,1.1-0.4,2.2-0.4,3.4c0,0.8,0,1.8,0,2.9c0.3,1.4,0.4,2.8,0.4,4.2
	c0,7.3-2.6,13.5-7.8,18.6c-5.2,5.2-11.4,7.8-18.6,7.8c-2,0-3.8-0.1-5.4-0.4c-2.2-0.6-4.5-1.4-6.7-2.5c-1.1-0.6-2.2-1.3-3.4-2.1
	c-0.6-0.6-0.6-1,0-1.3l18.4-9.6c0.6-0.3,0.8-0.8,0.8-1.7v-10.1c0-0.8-0.3-1.3-0.8-1.3l-9.2-3.8c-0.6-0.3-1.1-0.3-1.7,0l-17.2,9.6
	c-0.6,0.3-1,0.1-1.3-0.4v-1.3c0-0.6,0-1.1,0-1.7c0-7.3,2.6-13.5,7.8-18.6c5.2-5.2,11.4-7.8,18.6-7.8c0.8,0,2.1,0.1,3.8,0.4
	c0.6,0,1.1,0,1.7,0c1.1,0,2.1,0,2.9,0c0.8-0.3,1.7-0.7,2.5-1.3c0.3,0,0.6-0.1,0.8-0.4c0.6-0.3,1.1-0.7,1.7-1.3l46.5-46.5
	c0.3-0.3,0.6-0.7,0.8-1.3l0.8-0.8c0.3-0.6,0.6-1.1,0.8-1.7c0.3-1.1,0.4-2.2,0.4-3.4c0-0.8,0-1.8,0-2.9c-0.3-1.4-0.4-2.8-0.4-4.2
	c0-7.3,2.6-13.5,7.8-18.6c5.2-5.2,11.4-7.8,18.6-7.8c2,0,3.8,0.1,5.4,0.4c2.2,0.6,4.5,1.4,6.7,2.5c1.1,0.6,2.2,1.3,3.4,2.1
	c0.6,0.6,0.6,1,0,1.3l-18.4,9.6c-0.6,0.3-0.8,0.8-0.8,1.7v10.1c0,0.8,0.3,1.3,0.8,1.3l9.2,3.8c0.6,0.3,1.1,0.3,1.7,0l17.2-9.6
	c0.6-0.3,0.8-0.1,0.8,0.4l0.4,1.7C141.6,25.4,141.6,25.8,141.6,26.4z"/>
</svg>
