<?xml version="1.0" encoding="utf-8"?>
<!-- Generator: Adobe Illustrator 19.0.1, SVG Export Plug-In . SVG Version: 6.00 Build 0)  -->
<svg version="1.1" id="Layer_1" xmlns="http://www.w3.org/2000/svg" xmlns:xlink="http://www.w3.org/1999/xlink" x="0px" y="0px"
	 viewBox="0 0 137.4 122.7" style="enable-background:new 0 0 137.4 122.7;" xml:space="preserve">
<style type="text/css">
	.st0{fill:#138A44;}
	.st1{fill:#D55140;}
	.st2{fill:#EA632A;}
	.st3{fill:#F15D74;}
	.st4{fill:#78C3A2;}
	.st5{fill:#644A83;}
	.st6{fill:#D24537;}
	.st7{fill:#D49D3F;}
	.st8{fill:#175182;}
</style>
<path class="st2" d="M24.3,73.5c0.6,0.6,0.6,1.3,0,2.1l-5.9,5.9c-0.3,0.3-0.6,0.4-1,0.4c-0.4,0-0.8-0.1-1-0.4
	C5.7,70,0.3,56.3,0,40.4C0.3,24.8,5.6,11.5,15.9,0.6c0.8-0.8,1.7-0.8,2.5,0l5.9,5.9c0.6,0.8,0.6,1.5,0,2.1
	c-8.4,8.9-12.6,19.7-12.6,32.3S15.9,64.3,24.3,73.5z M45.2,58.9c0.6,0.8,0.4,1.5-0.4,2.1l-5,5c-0.3,0.3-0.6,0.4-1,0.4
	c-0.4,0-0.8-0.1-1-0.4c-7-7.5-10.5-16-10.5-25.3c0-9.4,3.6-17.7,10.9-24.9c0.3-0.6,0.6-0.8,1-0.8c0.4,0,0.8,0.3,1,0.8l5.4,5.4
	c0.8,0.6,0.8,1.3,0,2.1c-4.8,5.3-7.1,11.5-7.1,18.4C38.5,48.4,40.8,54.1,45.2,58.9z M90.5,120.4c0.3,0.3,0.4,0.6,0.4,0.8
	c0,0.8-0.6,1.3-1.7,1.3c-0.3,0-0.6,0-0.8,0l-20.5-13.8l-20.1,13.8c-0.6,0.3-1.1,0.2-1.7-0.2c-0.6-0.4-0.7-0.9-0.4-1.5l13.4-53.2
	c0.3-0.8,0.8-1.3,1.7-1.3h14.7c0.8,0,1.4,0.4,1.7,1.3L90.5,120.4z M59.7,49c-2.4-2.4-3.6-5.2-3.6-8.4c0-3.2,1.2-5.9,3.6-8.2
	c2.4-2.2,5.1-3.4,8.2-3.4c3.4,0,6.2,1.1,8.6,3.4c2.4,2.2,3.6,5,3.6,8.4s-1.2,6.1-3.6,8.4c-2.4,2.2-5.2,3.4-8.6,3.4
	C64.8,52.6,62.1,51.4,59.7,49z M97.6,16.5c7,8.1,10.5,16.5,10.5,25.1c0,9.5-3.5,17.9-10.5,25.1c-0.3,0.3-0.6,0.4-1,0.4
	c-0.4,0-0.8-0.1-1-0.4l-5.9-5.4c-0.6-0.6-0.6-1.3,0-2.1c4.7-5,7.1-11.2,7.1-18.4c0-6.4-2.1-12.1-6.3-17.2c-0.6-0.8-0.6-1.5,0-2.1
	l5-5c0.3-0.6,0.6-0.8,1-0.6C97,16.1,97.3,16.3,97.6,16.5z M137.4,42.5c-0.3,15.6-5.7,28.8-16.3,39.4c-0.3,0.3-0.6,0.4-1,0.4
	c-0.4,0-0.8-0.1-1-0.4l-5.9-5.9c-0.6-0.8-0.6-1.5,0-2.1c8.7-8.9,12.8-19.7,12.6-32.3c0.3-12.6-3.9-23.5-12.6-32.7
	c-0.6-0.8-0.6-1.5,0-2.1l5.9-5.4c0.6-0.6,1.3-0.6,2.1,0C131.7,12.6,137.1,26.3,137.4,42.5z"/>
</svg>
