<?xml version="1.0" encoding="utf-8"?>
<!-- Generator: Adobe Illustrator 19.0.1, SVG Export Plug-In . SVG Version: 6.00 Build 0)  -->
<svg version="1.1" id="Layer_1" xmlns="http://www.w3.org/2000/svg" xmlns:xlink="http://www.w3.org/1999/xlink" x="0px" y="0px"
	 viewBox="0 0 134.9 105.6" style="enable-background:new 0 0 134.9 105.6;" xml:space="preserve">
<style type="text/css">
	.st0{fill:#138A44;}
	.st1{fill:#D55140;}
	.st2{fill:#EA632A;}
	.st3{fill:#F15D74;}
	.st4{fill:#78C3A2;}
	.st5{fill:#644A83;}
	.st6{fill:#D24537;}
	.st7{fill:#D49D3F;}
	.st8{fill:#175182;}
</style>
<path class="st5" d="M131.5,16.3c2.2,2.2,3.4,4.9,3.4,8v70c0,3.1-1.1,5.7-3.4,8c-2.2,2.2-4.9,3.4-8,3.4H11.3c-3.1,0-5.7-1.1-8-3.4
	C1.1,100,0,97.3,0,94.3v-70c0-3.1,1.1-5.7,3.4-8c2.2-2.2,4.9-3.4,8-3.4h10.5V4.6h11.7V13h90.1C126.7,13,129.3,14.1,131.5,16.3z
	 M126.9,26.8c0-1.7-0.6-3.1-1.7-4.2c-1.1-1.1-2.4-1.7-3.8-1.7H13.4c-1.4,0-2.7,0.6-3.8,1.7C8.5,23.7,8,25.1,8,26.8v17.6h33.1
	c7.3-8.4,16.1-12.6,26.4-12.6c10.6,0,19.4,4.2,26.4,12.6h33.1V26.8z M86.5,85.5c5.2-5.3,7.8-11.6,7.8-18.9c0-7.3-2.6-13.6-7.8-19.1
	c-5.2-5.4-11.5-8.2-19.1-8.2c-7.3,0-13.5,2.7-18.9,8.2c-5.3,5.4-8,11.8-8,19.1c0,7.3,2.6,13.6,7.8,18.9c5.2,5.3,11.5,8,19.1,8
	S81.3,90.8,86.5,85.5z M67.5,48.2c-5,0-9.3,1.8-12.8,5.4c-3.5,3.6-5.2,8-5.2,13s1.7,9.3,5.2,12.8c3.5,3.5,7.8,5.2,12.8,5.2
	s9.3-1.7,12.8-5.2c3.5-3.5,5.2-7.8,5.2-12.8s-1.7-9.4-5.2-13C76.7,50,72.5,48.2,67.5,48.2z M88,10.9V0.8C88,0.3,88.3,0,88.8,0h24.3
	c0.6,0,0.8,0.3,0.8,0.8v10.1c0,0.3-0.3,0.4-0.8,0.4H88.8C88.3,11.3,88,11.2,88,10.9z"/>
</svg>
