<?xml version="1.0" encoding="utf-8"?>
<!-- Generator: Adobe Illustrator 19.0.1, SVG Export Plug-In . SVG Version: 6.00 Build 0)  -->
<svg version="1.1" id="Layer_1" xmlns="http://www.w3.org/2000/svg" xmlns:xlink="http://www.w3.org/1999/xlink" x="0px" y="0px"
	 viewBox="0 0 88.8 35.2" style="enable-background:new 0 0 88.8 35.2;" xml:space="preserve">
<style type="text/css">
	.st0{fill:#138A44;}
	.st1{fill:#D55140;}
	.st2{fill:#EA632A;}
	.st3{fill:#F15D74;}
	.st4{fill:#78C3A2;}
	.st5{fill:#644A83;}
	.st6{fill:#D24537;}
	.st7{fill:#D49D3F;}
	.st8{fill:#175182;}
</style>
<path class="st6" d="M24.3,1.7v8.4v0.4c-0.8,0.6-2.5,1.5-5,2.9c-3.4,1.7-6,3.1-8,4.2c2.8,1.1,7.1,3.5,13,7.1c0.3,0,0.4,0.1,0.4,0.4
	v8.4c0,0.3-0.1,0.4-0.4,0.4c0,0.3-0.1,0.4-0.2,0.4c-0.1,0-0.2-0.1-0.2-0.4L2.1,21.4C0.7,20.3,0,18.9,0,17.2c0-1.4,0.6-2.5,1.7-3.4
	h0.4c2.2-1.4,6-3.6,11.3-6.7c5-2.8,8.5-4.7,10.5-5.9C23.9,1,24,0.9,24.3,1c0.3,0.1,0.4,0.2,0.4,0.2S24.6,1.4,24.3,1.7z M52.4,0.4
	L41.1,35.2h-0.4h-5.4c-0.3,0-0.4-0.1-0.4-0.4L45.7,0h0.4h5.9C52.2,0,52.4,0.1,52.4,0.4z M88.8,18c0,1.4-0.6,2.5-1.7,3.4h-0.4
	c-2,1.4-5.7,3.6-11.3,6.7c-5,3.1-8.5,5-10.5,5.9c0,0.3-0.1,0.4-0.2,0.4c-0.1,0-0.2-0.1-0.2-0.4v-0.4v-8.4v-0.4
	c0.8-0.6,2.5-1.5,5-2.9c2.8-1.4,5.4-2.8,8-4.2c-2.8-1.1-7.1-3.5-13-7.1c-0.3,0-0.4-0.1-0.4-0.4V1.7c0-0.3,0.1-0.5,0.4-0.6
	c0.3-0.1,0.4-0.1,0.4,0.2l21.8,12.6C88.1,14.9,88.8,16.3,88.8,18z"/>
</svg>
