<?xml version="1.0" encoding="utf-8"?>
<!-- Generator: Adobe Illustrator 19.0.1, SVG Export Plug-In . SVG Version: 6.00 Build 0)  -->
<svg version="1.1" id="Layer_1" xmlns="http://www.w3.org/2000/svg" xmlns:xlink="http://www.w3.org/1999/xlink" x="0px" y="0px"
	 viewBox="0 0 144.1 96.4" style="enable-background:new 0 0 144.1 96.4;" xml:space="preserve">
<style type="text/css">
	.st0{fill:#138A44;}
	.st1{fill:#D55140;}
	.st2{fill:#EA632A;}
	.st3{fill:#F15D74;}
	.st4{fill:#78C3A2;}
	.st5{fill:#644A83;}
	.st6{fill:#D24537;}
	.st7{fill:#D49D3F;}
	.st8{fill:#175182;}
</style>
<path class="st7" d="M144.1,1.7v93c0,1.1-0.6,1.7-1.7,1.7H1.7c-1.1,0-1.7-0.6-1.7-1.7v-93C0,0.6,0.6,0,1.7,0h140.8
	C143.6,0,144.1,0.6,144.1,1.7z M47.3,46.9L8.8,14.2V83L47.3,46.9z M128.2,8.8H15.9l56.1,47.8L128.2,8.8z M16.8,87.6h110.6L90.1,52.4
	L72.9,67c-0.6,0.6-1.1,0.6-1.7,0L54,52.4L16.8,87.6z M135.3,83V14.2L96.8,46.9L135.3,83z"/>
</svg>
