<?xml version="1.0" encoding="utf-8"?>
<!-- Generator: Adobe Illustrator 19.0.1, SVG Export Plug-In . SVG Version: 6.00 Build 0)  -->
<svg version="1.1" id="Layer_1" xmlns="http://www.w3.org/2000/svg" xmlns:xlink="http://www.w3.org/1999/xlink" x="0px" y="0px"
	 viewBox="0 0 128.2 115.6" style="enable-background:new 0 0 128.2 115.6;" xml:space="preserve">
<style type="text/css">
	.st0{fill:#138A44;}
	.st1{fill:#D55140;}
	.st2{fill:#EA632A;}
	.st3{fill:#F15D74;}
	.st4{fill:#78C3A2;}
	.st5{fill:#644A83;}
	.st6{fill:#D24537;}
	.st7{fill:#D49D3F;}
	.st8{fill:#175182;}
</style>
<path class="st5" d="M128.2,2.9v83v0.8c0,0.6-0.3,1.1-0.8,1.7c-0.6,0.6-1.4,0.8-2.5,0.8c-1.7,0.3-21.9,0.3-60.7,0
	c-38.5,0.3-58.9,0.4-61,0.2C1,89.3,0,88.1,0,85.9v-83C0,1.3,1.1,0.3,3.4,0h60.3h0.8h60.3C127.1,0.3,128.2,1.3,128.2,2.9z M120.7,7.5
	H7.5v63.7h113.1V7.5z M85.5,113.1v-0.4c-2.2-1.7-3.8-3.4-4.6-5l-1.3-3.8c-0.3-3.6-0.6-6.8-0.8-9.6H49.4l-0.8,9.6
	c-0.3,2.5-0.7,3.8-1.3,3.8c-0.8,1.7-2.4,3.4-4.6,5l0.4,2.5h0.4H44c0.8,0,2.2,0,4.2,0c0.3,0,0.6,0,1,0s0.9,0,1.5,0
	c3.9,0.3,8.7,0.4,14.2,0.4c4.2,0,7.3-0.1,9.2-0.4c1.4,0,3.1,0,5,0c0.3,0,1,0,2.1,0c0.3,0,1.1,0,2.5,0c0.3,0,0.6,0,0.8,0
	c0.6,0,1-0.1,1.3-0.4C86.4,114.5,86.3,114,85.5,113.1z M64.1,107.7v-0.4V107.7z M64.1,108.1c0.3,0.3,0.3,0.7,0,1.3
	C64.4,109.1,64.4,108.7,64.1,108.1z"/>
</svg>
