<?xml version="1.0" encoding="utf-8"?>
<!-- Generator: Adobe Illustrator 19.0.1, SVG Export Plug-In . SVG Version: 6.00 Build 0)  -->
<svg version="1.1" id="Layer_1" xmlns="http://www.w3.org/2000/svg" xmlns:xlink="http://www.w3.org/1999/xlink" x="0px" y="0px"
	 viewBox="0 0 147.5 147.5" style="enable-background:new 0 0 147.5 147.5;" xml:space="preserve">
<style type="text/css">
	.st0{fill:#138A44;}
	.st1{fill:#D55140;}
	.st2{fill:#EA632A;}
	.st3{fill:#F15D74;}
	.st4{fill:#78C3A2;}
	.st5{fill:#644A83;}
	.st6{fill:#D24537;}
	.st7{fill:#D49D3F;}
	.st8{fill:#175182;}
</style>
<path class="st0" d="M147.5,73.7c0,20.4-7.2,37.8-21.6,52.2c-14.4,14.4-31.8,21.6-52.2,21.6c-20.4,0-37.8-7.2-52.2-21.6
	C7.2,111.5,0,94.1,0,73.7C0,53.4,7.2,36,21.6,21.6C36,7.2,53.3,0,73.7,0c20.4,0,37.8,7.2,52.2,21.6C140.3,36,147.5,53.4,147.5,73.7z
	 M9.2,73.7c0,17.9,6.3,33.1,18.9,45.7s27.8,18.9,45.7,18.9c17.9,0,33.1-6.3,45.7-18.9s18.9-27.8,18.9-45.7
	c0-17.9-6.3-33.1-18.9-45.7S91.6,9.2,73.7,9.2c-17.9,0-33.1,6.3-45.7,18.9S9.2,55.9,9.2,73.7z M121.5,78.6c1.1-1.3,1.7-2.7,1.7-4.4
	s-0.6-3.1-1.7-4.4c-1.1-1.3-2.5-1.9-4.2-1.9h-85c-1.7,0-3.1,0.6-4.4,1.9S26,72.5,26,74.2s0.6,3.1,1.9,4.4s2.7,1.9,4.4,1.9h85
	C119,80.4,120.4,79.8,121.5,78.6z M80.9,116.5v-85c0-1.7-0.6-3.1-1.9-4.2c-1.3-1.1-2.7-1.7-4.4-1.7s-3.1,0.6-4.2,1.7
	c-1.1,1.1-1.7,2.5-1.7,4.2v85c0,1.7,0.6,3.1,1.7,4.4c1.1,1.3,2.5,1.9,4.2,1.9s3.1-0.6,4.4-1.9S80.9,118.1,80.9,116.5z"/>
</svg>
