<?xml version="1.0" encoding="utf-8"?>
<!-- Generator: Adobe Illustrator 19.0.1, SVG Export Plug-In . SVG Version: 6.00 Build 0)  -->
<svg version="1.1" id="Layer_1" xmlns="http://www.w3.org/2000/svg" xmlns:xlink="http://www.w3.org/1999/xlink" x="0px" y="0px"
	 viewBox="0 0 145.8 133.2" style="enable-background:new 0 0 145.8 133.2;" xml:space="preserve">
<style type="text/css">
	.st0{fill:#138A44;}
	.st1{fill:#D55140;}
	.st2{fill:#EA632A;}
	.st3{fill:#F15D74;}
	.st4{fill:#78C3A2;}
	.st5{fill:#644A83;}
	.st6{fill:#D24537;}
	.st7{fill:#D49D3F;}
	.st8{fill:#175182;}
</style>
<path class="st2" d="M138.9,84.8c-4.6,5.4-10.4,8.7-17.4,9.8c-1.1,2.5-2.5,5.2-4.2,8c-1.7,2.8-4.1,6.2-7.1,10.3
	c-3.1,4.1-6.8,7.4-11.1,10.1c-4.3,2.7-8.7,4.1-13.2,4.4c-1.4,3.9-4.2,5.9-8.4,5.9c-2.5,0-4.7-0.9-6.5-2.7c-1.8-1.8-2.7-3.9-2.7-6.3
	c0-2.4,0.9-4.5,2.7-6.3c1.8-1.8,4-2.7,6.5-2.7c4.2,0,7,2,8.4,5.9c4.7-0.3,9.6-2.7,14.7-7.3c5-4.6,8.6-8.7,10.7-12.1
	c2.1-3.5,3.8-6.8,5.2-9.8V41.5c-3.1-9.2-8.6-16.8-16.5-22.6c-8-5.9-17-8.8-27-8.8s-19.1,3-27,9c-8,6-13.5,13.6-16.5,22.8v53.6
	c-8.1,0-15-2.9-20.7-8.6C2.9,81.2,0,74.3,0,66.2C0,59.8,1.9,54,5.7,49c3.8-5,8.4-8.5,14-10.5C23.6,27.1,30.4,17.8,40,10.7
	C49.6,3.6,60.6,0,72.9,0C85.2,0,96.2,3.6,106,10.7c9.8,7.1,16.5,16.4,20.1,27.9c5.9,2,10.6,5.4,14.2,10.5c3.6,5,5.4,10.8,5.4,17.2
	C145.8,73.2,143.5,79.4,138.9,84.8z"/>
</svg>
