<?xml version="1.0" encoding="utf-8"?>
<!-- Generator: Adobe Illustrator 19.0.1, SVG Export Plug-In . SVG Version: 6.00 Build 0)  -->
<svg version="1.1" id="Layer_1" xmlns="http://www.w3.org/2000/svg" xmlns:xlink="http://www.w3.org/1999/xlink" x="0px" y="0px"
	 viewBox="0 0 129 153.3" style="enable-background:new 0 0 129 153.3;" xml:space="preserve">
<style type="text/css">
	.st0{fill:#138A44;}
	.st1{fill:#D55140;}
	.st2{fill:#EA632A;}
	.st3{fill:#F15D74;}
	.st4{fill:#78C3A2;}
	.st5{fill:#644A83;}
	.st6{fill:#D24537;}
	.st7{fill:#D49D3F;}
	.st8{fill:#175182;}
</style>
<path class="st2" d="M129,29.7v93.8c0,9.5-6.5,16.8-19.5,22c-13,5.2-28,7.8-45,7.8c-17,0-32-2.6-45-7.8c-13-5.2-19.5-12.5-19.5-22
	V29.7c0-9.5,6.4-16.8,19.3-22C32.1,2.6,47.1,0,64.3,0s32.3,2.6,45.2,7.8C122.5,12.9,129,20.3,129,29.7z M119.8,30
	c0-5.7-5.4-10.6-16.1-14.7c-10.8-4-23.8-6.1-39.2-6.1c-15.4,0-28.4,2-39.2,6.1C14.6,19.3,9.2,24.2,9.2,30c0,5.7,5.4,10.6,16.1,14.7
	c10.7,4.1,23.8,6.1,39.2,6.1c15.4,0,28.4-2,39.2-6.1C114.4,40.6,119.8,35.7,119.8,30z M119.8,46.5c-12,8.9-30.4,13.4-55.3,13.4
	c-24.9,0-43.3-4.5-55.3-13.4V62v0.4c0,5.6,5.4,10.4,16.1,14.5C36.1,80.9,49.2,83,64.5,83c15.4,0,28.4-2,39.2-6.1
	c10.7-4,16.1-8.9,16.1-14.5V62V46.5z M119.8,75.4c-4.8,4.8-12.1,8.5-22.2,11.1c-10.1,2.7-21.1,4-33.1,4c-12,0-23-1.3-33.1-4
	C21.4,83.9,14,80.2,9.2,75.4v17.2V93c0,5.6,5.4,10.4,16.1,14.5c10.7,4.1,23.8,6.1,39.2,6.1c15.4,0,28.4-2,39.2-6.1
	c10.7-4,16.1-8.9,16.1-14.5v-0.4V75.4z M119.8,106.4c-4.8,4.5-12.1,8-22.2,10.7c-10.1,2.7-21.1,4-33.1,4c-12,0-23-1.3-33.1-4
	c-10.1-2.7-17.5-6.2-22.2-10.7v17.2c0,5.6,5.4,10.4,16.1,14.5c10.7,4.1,23.8,6.1,39.2,6.1c15.4,0,28.4-2,39.2-6.1
	c10.7-4,16.1-8.9,16.1-14.5V106.4z M105.8,59.9c-1.3,0-2.3,0.4-3.1,1.3s-1.3,1.9-1.3,3.1c0,1.3,0.4,2.4,1.3,3.4
	c0.8,1,1.9,1.5,3.1,1.5s2.4-0.5,3.4-1.5c1-1,1.5-2.1,1.5-3.4c0-1.3-0.5-2.3-1.5-3.1C108.2,60.3,107,59.9,105.8,59.9z M105.8,90.5
	c-1.3,0-2.3,0.4-3.1,1.3s-1.3,1.9-1.3,3.1c0,1.3,0.4,2.4,1.3,3.4c0.8,1,1.9,1.5,3.1,1.5s2.4-0.5,3.4-1.5c1-1,1.5-2.1,1.5-3.4
	c0-1.3-0.5-2.3-1.5-3.1C108.2,90.9,107,90.5,105.8,90.5z M105.8,121.1c-1.3,0-2.3,0.4-3.1,1.3s-1.3,2-1.3,3.4c0,1.4,0.4,2.5,1.3,3.4
	s1.9,1.3,3.1,1.3s2.4-0.4,3.4-1.3c1-0.8,1.5-2,1.5-3.4c0-1.4-0.5-2.5-1.5-3.4C108.2,121.5,107,121.1,105.8,121.1z"/>
</svg>
