<?xml version="1.0" encoding="utf-8"?>
<!-- Generator: Adobe Illustrator 19.0.1, SVG Export Plug-In . SVG Version: 6.00 Build 0)  -->
<svg version="1.1" id="Layer_1" xmlns="http://www.w3.org/2000/svg" xmlns:xlink="http://www.w3.org/1999/xlink" x="0px" y="0px"
	 viewBox="0 0 145.8 128.2" style="enable-background:new 0 0 145.8 128.2;" xml:space="preserve">
<style type="text/css">
	.st0{fill:#138A44;}
	.st1{fill:#D55140;}
	.st2{fill:#EA632A;}
	.st3{fill:#F15D74;}
	.st4{fill:#78C3A2;}
	.st5{fill:#644A83;}
	.st6{fill:#D24537;}
	.st7{fill:#D49D3F;}
	.st8{fill:#175182;}
</style>
<path class="st6" d="M133.4,12.8c8.2,8.5,12.4,20.3,12.4,35.4c0,8.1-1.9,15.9-5.7,23.3c-3.8,7.4-9.4,14.5-16.8,21.4
	c-7.4,6.8-14.5,12.7-21.4,17.6c-6.8,4.9-15.3,10.5-25.3,17c-1.1,0.6-2.4,0.8-3.8,0.8c-1.4,0-2.7-0.3-3.8-0.8
	c-10.1-6.4-18.5-12.1-25.3-17c-6.8-4.9-14-10.7-21.4-17.6C15,86,9.4,78.8,5.7,71.4C1.9,64,0,56.3,0,48.2c0-15.1,4.1-26.9,12.4-35.4
	C20.6,4.3,30.3,0,41.5,0c12.8,0,23.3,5.2,31.4,15.5C81,5.2,91.5,0,104.3,0C115.5,0,125.2,4.3,133.4,12.8z M80,21.4
	c-1.7,2.2-4.1,3.4-7.1,3.4c-3.1,0-5.4-1.1-7.1-3.4C59.3,13,51.2,8.8,41.5,8.8c-8.7,0-16.2,3.4-22.6,10.3c-6.4,6.8-9.6,16.5-9.6,29.1
	c0,6.7,1.7,13.3,5.2,19.9C17.9,74.6,23,81,29.7,87.1c6.7,6.1,13.3,11.5,19.7,16.1c6.4,4.6,14.2,9.8,23.5,15.7
	c9.2-5.9,17-11.1,23.5-15.7c6.4-4.6,13-10,19.7-16.1c6.7-6.1,11.8-12.5,15.3-19.1c3.5-6.6,5.2-13.2,5.2-19.9
	c0-12.6-3.2-22.3-9.6-29.1c-6.4-6.8-14-10.3-22.6-10.3C94.5,8.8,86.4,13,80,21.4z"/>
</svg>
