<?xml version="1.0" encoding="utf-8"?>
<!-- Generator: Adobe Illustrator 19.0.1, SVG Export Plug-In . SVG Version: 6.00 Build 0)  -->
<svg version="1.1" id="Layer_1" xmlns="http://www.w3.org/2000/svg" xmlns:xlink="http://www.w3.org/1999/xlink" x="0px" y="0px"
	 viewBox="0 0 146.6 119" style="enable-background:new 0 0 146.6 119;" xml:space="preserve">
<style type="text/css">
	.st0{fill:#138A44;}
	.st1{fill:#D55140;}
	.st2{fill:#EA632A;}
	.st3{fill:#F15D74;}
	.st4{fill:#78C3A2;}
	.st5{fill:#644A83;}
	.st6{fill:#D24537;}
	.st7{fill:#D49D3F;}
	.st8{fill:#175182;}
</style>
<path class="st6" d="M141,48.6c3.8,5.6,5.7,11.7,5.7,18.4c0,9.2-3.2,17-9.6,23.5c-6.4,6.4-14.2,9.6-23.5,9.6h-10.1v-7.5h10.1
	c7,0,13-2.5,18-7.5s7.5-11,7.5-18c0-6.1-2-11.5-5.9-16.1c-3.9-4.6-8.9-7.5-15.1-8.6c0.3-0.8,0.4-1.8,0.4-2.9
	c0-8.9-3.1-16.5-9.4-22.6c-6.3-6.1-13.8-9.2-22.4-9.2c-6.7,0-12.8,1.9-18.2,5.7C63.1,17,59.2,21.9,57,28.1
	c-3.4-3.6-7.4-5.4-12.1-5.4c-4.5,0-8.3,1.6-11.5,4.8c-3.2,3.2-4.8,7.1-4.8,11.5c0,1.1,0.1,2.2,0.4,3.4c-6.1,0.8-11.2,3.6-15.3,8.4
	C9.6,55.4,7.5,60.9,7.5,67c0,7,2.5,13,7.5,18s11,7.5,18,7.5h12.6v7.5H33.1c-9.2,0-17-3.2-23.5-9.6C3.2,84.1,0,76.2,0,67
	c0-6.7,2-12.8,5.9-18.4C9.8,43,14.8,39,20.9,36.4c0.8-6.1,3.5-11.2,8-15.3c4.5-4,9.8-6.1,15.9-6.1c3.4,0,6.4,0.7,9.2,2.1
	C62.1,5.7,73,0,86.7,0c10.3,0,19.3,3.5,26.8,10.5c7.5,7,11.7,15.6,12.6,26C132.2,39,137.2,43,141,48.6z M77.9,48.6
	c-0.8-0.8-1.9-1.3-3.1-1.3c-1.3,0-2.3,0.4-3.1,1.3s-1.3,1.8-1.3,2.9v52.4L57.8,91.3c-2-2-4.1-2-6.3,0c-0.8,0.8-1.3,1.9-1.3,3.1
	c0,1.3,0.4,2.3,1.3,3.1l20.1,20.1c0.3,0.3,0.6,0.6,0.8,0.8h0.4l0.4,0.4h0.4h0.4h0.4H75c0.3,0,0.6,0,0.8,0h0.4h0.4l0.4-0.4h0.4
	c0.3-0.3,0.4-0.6,0.4-0.8l20.5-20.1c2-2,1.9-4-0.2-6.1c-2.1-2.1-4.3-2.2-6.5-0.2l-12.6,12.6V51.5C79.2,50.4,78.8,49.4,77.9,48.6z"/>
</svg>
