<?xml version="1.0" encoding="utf-8"?>
<!-- Generator: Adobe Illustrator 19.0.1, SVG Export Plug-In . SVG Version: 6.00 Build 0)  -->
<svg version="1.1" id="Layer_1" xmlns="http://www.w3.org/2000/svg" xmlns:xlink="http://www.w3.org/1999/xlink" x="0px" y="0px"
	 viewBox="0 0 107.2 141.6" style="enable-background:new 0 0 107.2 141.6;" xml:space="preserve">
<style type="text/css">
	.st0{fill:#138A44;}
	.st1{fill:#D55140;}
	.st2{fill:#EA632A;}
	.st3{fill:#F15D74;}
	.st4{fill:#78C3A2;}
	.st5{fill:#644A83;}
	.st6{fill:#D24537;}
	.st7{fill:#D49D3F;}
	.st8{fill:#175182;}
</style>
<path class="st6" d="M105.4,69.3c1.3,1.3,1.9,2.7,1.9,4.4v61.6c0,1.7-0.6,3.1-1.9,4.4c-1.3,1.3-2.7,1.9-4.4,1.9H58.7H48.2H6.3
	c-1.7,0-3.1-0.6-4.4-1.9C0.6,138.5,0,137,0,135.3V73.7c0-1.7,0.6-3.1,1.9-4.4c1.3-1.3,2.7-1.9,4.4-1.9h6.3v-26
	c0-11.4,4-21.2,11.9-29.3C32.5,4.1,42.2,0,53.6,0C65.1,0,74.8,4.1,83,12.1C91,20.3,95.1,30,95.1,41.5v26h5.9
	C102.6,67.5,104.1,68.1,105.4,69.3z M81.7,40.2c0-8.9-2.9-15.8-8.8-20.7c-5.9-4.9-12.3-7.3-19.3-7.3c-7,0-13.4,2.5-19.3,7.5
	s-8.8,11.9-8.8,20.5v27.2h56.1V40.2z M66.6,99.3c0-3.6-1.3-6.7-3.8-9.2s-5.6-3.8-9.2-3.8c-3.6,0-6.7,1.3-9.2,3.8s-3.8,5.6-3.8,9.2
	c0,5.3,2.2,9.2,6.7,11.7v15.1c0,0.8,0.6,1.3,1.7,1.3h9.2c1.1,0,1.7-0.4,1.7-1.3V111C64.4,108.5,66.6,104.6,66.6,99.3z"/>
</svg>
