<?xml version="1.0" encoding="utf-8"?>
<!-- Generator: Adobe Illustrator 19.0.1, SVG Export Plug-In . SVG Version: 6.00 Build 0)  -->
<svg version="1.1" id="Layer_1" xmlns="http://www.w3.org/2000/svg" xmlns:xlink="http://www.w3.org/1999/xlink" x="0px" y="0px"
	 viewBox="0 0 145 93.8" style="enable-background:new 0 0 145 93.8;" xml:space="preserve">
<style type="text/css">
	.st0{fill:#138A44;}
	.st1{fill:#D55140;}
	.st2{fill:#EA632A;}
	.st3{fill:#F15D74;}
	.st4{fill:#78C3A2;}
	.st5{fill:#644A83;}
	.st6{fill:#D24537;}
	.st7{fill:#D49D3F;}
	.st8{fill:#175182;}
</style>
<path class="st7" d="M145,21.4c0,5-1.5,9.5-4.6,13.4c-3.1,3.9-7,6.4-11.7,7.5v10.5c0,6.7-2.4,12.5-7.3,17.4
	c-4.9,4.9-10.8,7.3-17.8,7.3H93c-1.1,4.8-3.6,8.7-7.5,11.7c-3.9,3.1-8.2,4.6-13,4.6c-4.8,0-9.1-1.5-13-4.6c-3.9-3.1-6.4-7-7.5-11.7
	H41.1c-7,0-12.8-2.4-17.6-7.3c-4.8-4.9-7.1-10.7-7.1-17.4V42.3c-4.8-1.4-8.7-4-11.7-7.8C1.5,30.8,0,26.4,0,21.4
	c0-5.9,2.1-10.9,6.3-15.1S15.5,0,21.4,0s10.9,2.1,15.1,6.3s6.3,9.2,6.3,15.1c0,5-1.6,9.5-4.8,13.4c-3.2,3.9-7.2,6.4-11.9,7.5v10.5
	c0,4.2,1.5,7.8,4.4,10.7c2.9,2.9,6.5,4.4,10.7,4.4h10.5c2-8.7,7.3-14.1,15.9-16.3v-9.2c-4.8-1.1-8.7-3.6-11.7-7.5
	c-3.1-3.9-4.6-8.4-4.6-13.4c0-5.9,2.1-10.9,6.3-15.1S66.6,0,72.5,0s10.9,2.1,15.1,6.3s6.3,9.2,6.3,15.1c0,5-1.5,9.5-4.6,13.4
	c-3.1,3.9-7,6.4-11.7,7.5v9.2c8.7,2.2,14,7.7,15.9,16.3h10.1c4.2,0,7.8-1.5,10.7-4.4c2.9-2.9,4.4-6.5,4.4-10.7V42.3
	c-4.8-1.1-8.7-3.6-11.7-7.5c-3.1-3.9-4.6-8.4-4.6-13.4c0-5.9,2.1-10.9,6.3-15.1S117.7,0,123.6,0s10.9,2.1,15.1,6.3
	S145,15.5,145,21.4z M9.6,21.4c0,3.1,1.1,5.8,3.4,8.2c2.2,2.4,5,3.6,8.2,3.6c3.2,0,5.9-1.2,8.2-3.6c2.2-2.4,3.4-5.1,3.4-8.2
	c0-3.1-1.1-5.7-3.4-8c-2.2-2.2-5-3.4-8.2-3.4c-3.2,0-5.9,1.1-8.2,3.4C10.7,15.6,9.6,18.3,9.6,21.4z M61.2,21.4
	c0,3.1,1.1,5.8,3.4,8.2c2.2,2.4,4.9,3.6,8,3.6c3.1,0,5.7-1.2,8-3.6c2.2-2.4,3.4-5.1,3.4-8.2c0-3.1-1.1-5.7-3.4-8
	c-2.2-2.2-4.9-3.4-8-3.4c-3.1,0-5.7,1.1-8,3.4C62.3,15.6,61.2,18.3,61.2,21.4z M61.2,72.5c0,3.1,1.1,5.7,3.4,8
	c2.2,2.2,4.9,3.4,8,3.4c3.1,0,5.7-1.1,8-3.4c2.2-2.2,3.4-4.9,3.4-8c0-3.1-1.1-5.8-3.4-8.2c-2.2-2.4-4.9-3.6-8-3.6
	c-3.1,0-5.7,1.2-8,3.6C62.3,66.7,61.2,69.4,61.2,72.5z M112.3,21.4c0,3.1,1.1,5.8,3.4,8.2c2.2,2.4,5,3.6,8.2,3.6
	c3.2,0,5.9-1.2,8.2-3.6c2.2-2.4,3.4-5.1,3.4-8.2c0-3.1-1.1-5.7-3.4-8c-2.2-2.2-5-3.4-8.2-3.4c-3.2,0-5.9,1.1-8.2,3.4
	C113.4,15.6,112.3,18.3,112.3,21.4z"/>
</svg>
