<?xml version="1.0" encoding="utf-8"?>
<!-- Generator: Adobe Illustrator 19.0.1, SVG Export Plug-In . SVG Version: 6.00 Build 0)  -->
<svg version="1.1" id="Layer_1" xmlns="http://www.w3.org/2000/svg" xmlns:xlink="http://www.w3.org/1999/xlink" x="0px" y="0px"
	 viewBox="0 0 142.4 119.8" style="enable-background:new 0 0 142.4 119.8;" xml:space="preserve">
<style type="text/css">
	.st0{fill:#138A44;}
	.st1{fill:#D55140;}
	.st2{fill:#EA632A;}
	.st3{fill:#F15D74;}
	.st4{fill:#78C3A2;}
	.st5{fill:#644A83;}
	.st6{fill:#D24537;}
	.st7{fill:#D49D3F;}
	.st8{fill:#175182;}
</style>
<path class="st7" d="M138,53.8c2.9,2.9,4.4,6.5,4.4,10.7v34.8c0,0.3-0.3,0.4-0.8,0.4h-10.5v8c0,3.4-1.2,6.2-3.6,8.6
	c-2.4,2.4-5.2,3.6-8.6,3.6s-6.2-1.2-8.6-3.6c-2.4-2.4-3.6-5.2-3.6-8.6v-8H35.6v8c0,3.4-1.2,6.2-3.6,8.6c-2.4,2.4-5.2,3.6-8.6,3.6
	s-6.2-1.2-8.6-3.6c-2.4-2.4-3.6-5.2-3.6-8.6v-8H0.8c-0.3,0-0.6-0.1-0.8-0.4V64.5c0-4.2,1.5-7.8,4.4-10.7c2.9-2.9,6.4-4.5,10.3-4.8
	l12.1-31c0.3-0.6,0.8-1.3,1.5-2.3c0.7-1,2.2-2.2,4.6-3.8c2.4-1.5,5.2-2.3,8.6-2.3h10.9V3.8c0-2.5,1.3-3.8,3.8-3.8h30.2
	c2.5,0,3.8,1.3,3.8,3.8v5.9h11.3c3.1,0,5.8,0.8,8.2,2.3c2.4,1.5,3.9,2.8,4.6,3.8c0.7,1,1.2,1.7,1.5,2.3l12.1,31
	C131.7,49.3,135.1,50.9,138,53.8z M23.5,62.8c-2.8,0-5.2,1-7.3,2.9c-2.1,2-3.1,4.4-3.1,7.3s1,5.4,3.1,7.5c2.1,2.1,4.5,3.1,7.3,3.1
	c2.8,0,5.2-1,7.3-3.1c2.1-2.1,3.1-4.6,3.1-7.5s-1-5.4-3.1-7.3C28.7,63.8,26.2,62.8,23.5,62.8z M111.4,49l-8.8-22.2
	c-1.4-3.6-4.5-5.4-9.2-5.4H49c-4.8,0-7.8,1.8-9.2,5.4L31,49H111.4z M119,62.8c-2.8,0-5.2,1-7.3,2.9c-2.1,2-3.1,4.4-3.1,7.3
	s1,5.4,3.1,7.5c2.1,2.1,4.5,3.1,7.3,3.1c2.8,0,5.2-1,7.3-3.1c2.1-2.1,3.1-4.6,3.1-7.5s-1-5.4-3.1-7.3
	C124.2,63.8,121.8,62.8,119,62.8z"/>
</svg>
