<?xml version="1.0" encoding="utf-8"?>
<!-- Generator: Adobe Illustrator 19.0.1, SVG Export Plug-In . SVG Version: 6.00 Build 0)  -->
<svg version="1.1" id="Layer_1" xmlns="http://www.w3.org/2000/svg" xmlns:xlink="http://www.w3.org/1999/xlink" x="0px" y="0px"
	 viewBox="0 0 146.6 122.3" style="enable-background:new 0 0 146.6 122.3;" xml:space="preserve">
<style type="text/css">
	.st0{fill:#138A44;}
	.st1{fill:#D55140;}
	.st2{fill:#EA632A;}
	.st3{fill:#F15D74;}
	.st4{fill:#78C3A2;}
	.st5{fill:#644A83;}
	.st6{fill:#D24537;}
	.st7{fill:#D49D3F;}
	.st8{fill:#175182;}
</style>
<path class="st3" d="M141,48.6c3.8,5.6,5.7,11.9,5.7,18.9c0,8.9-3.2,16.7-9.6,23.3c-6.4,6.6-14.2,9.8-23.5,9.8H91.3v-8h22.2
	c7,0,13-2.4,18-7.3c5-4.9,7.5-10.8,7.5-17.8c0-6.1-2-11.6-5.9-16.3c-3.9-4.7-8.9-7.7-15.1-8.8c0.3-0.8,0.4-1.8,0.4-2.9
	c0-8.7-3.1-16.1-9.4-22.4c-6.3-6.3-13.8-9.4-22.4-9.4c-6.7,0-12.8,1.9-18.2,5.7C63.1,17,59.2,21.9,57,28.1c-3.4-3.4-7.4-5-12.1-5
	c-4.5,0-8.3,1.5-11.5,4.6c-3.2,3.1-4.8,7-4.8,11.7c0,0.8,0.1,1.8,0.4,2.9c-6.1,1.1-11.2,4-15.3,8.6C9.6,55.5,7.5,61,7.5,67.5
	c0,7,2.5,12.9,7.5,17.8c5,4.9,11,7.3,18,7.3h25.1v8H33.1c-9.2,0-17-3.3-23.5-9.8C3.2,84.1,0,76.4,0,67.5c0-7,2-13.3,5.9-18.9
	C9.8,43,14.8,39,20.9,36.4c0.8-5.9,3.5-10.9,8-15.1c4.5-4.2,9.8-6.3,15.9-6.3c3.4,0,6.4,0.7,9.2,2.1C62.1,5.7,73,0,86.7,0
	c10.3,0,19.3,3.6,26.8,10.7c7.5,7.1,11.7,15.9,12.6,26.2C132.2,39.1,137.2,43,141,48.6z M77.9,121.1c-0.8,0.8-1.9,1.3-3.1,1.3
	c-1.3,0-2.3-0.4-3.1-1.3s-1.3-2-1.3-3.4V65.8L57.8,78.3c-2,2-4.1,2-6.3,0c-0.8-0.8-1.3-1.9-1.3-3.1c0-1.3,0.4-2.3,1.3-3.1l20.1-20.1
	c0.3-0.3,0.6-0.6,0.8-0.8h0.4c0-0.3,0.1-0.4,0.4-0.4h0.4h0.4h0.4l0.4-0.4v0.4c0.3,0,0.6,0,0.8,0h0.4h0.4l0.4,0.4h0.4
	c0.3,0.3,0.4,0.6,0.4,0.8l20.5,20.1c2,2,1.9,4-0.2,6.1c-2.1,2.1-4.3,2.2-6.5,0.2L79.2,65.8v51.9C79.2,119.1,78.8,120.2,77.9,121.1z"
	/>
</svg>
