<?xml version="1.0" encoding="utf-8"?>
<!-- Generator: Adobe Illustrator 19.0.1, SVG Export Plug-In . SVG Version: 6.00 Build 0)  -->
<svg version="1.1" id="Layer_1" xmlns="http://www.w3.org/2000/svg" xmlns:xlink="http://www.w3.org/1999/xlink" x="0px" y="0px"
	 viewBox="0 0 124 126.5" style="enable-background:new 0 0 124 126.5;" xml:space="preserve">
<style type="text/css">
	.st0{fill:#138A44;}
	.st1{fill:#D55140;}
	.st2{fill:#EA632A;}
	.st3{fill:#F15D74;}
	.st4{fill:#78C3A2;}
	.st5{fill:#644A83;}
	.st6{fill:#D24537;}
	.st7{fill:#D49D3F;}
	.st8{fill:#175182;}
</style>
<path class="st0" d="M123.2,75c0.6,0.3,0.8,0.7,0.8,1.3l-2.1,34.4c0,0.6-0.3,1-0.8,1.3c-0.3,0-0.6,0-0.8,0c-0.3,0-0.6-0.1-0.8-0.4
	l-10.1-6.7C96.8,119.3,81,126.5,62,126.5c-15.4,0-28.8-4.9-40.4-14.7C10,102.1,2.8,89.8,0,75h9.2c2.8,12,9.1,22.1,18.9,30.2
	c9.8,8.1,21.1,12.1,33.9,12.1c15.9,0,29.2-6,39.8-18l-9.6-6.7c-0.3-0.3-0.4-0.7-0.4-1.3c0-0.6,0.3-1,0.8-1.3L121.5,75
	C122.1,74.7,122.6,74.7,123.2,75z M0.8,51.9c-0.3-0.3-0.4-0.7-0.4-1.3l1.7-34.4c0.3-0.6,0.6-1,1-1.3c0.4-0.3,0.9-0.1,1.5,0.4
	l9.6,6.7C26.8,7.4,42.7,0,62,0c15.4,0,28.9,5,40.6,14.9c11.7,9.9,18.9,22.3,21.4,37.1h-9.2c-2.5-12.3-8.7-22.5-18.6-30.6
	C86.2,13.3,74.8,9.2,62,9.2c-15.9,0-29.3,6-40.2,18l10.1,7.1c0.6,0.3,0.8,0.7,0.6,1.3c-0.1,0.6-0.4,1-0.6,1.3L2.5,52.4
	c-0.3,0-0.6,0-0.8,0C1.4,52.4,1.1,52.2,0.8,51.9z"/>
</svg>
