<?xml version="1.0" encoding="utf-8"?>
<!-- Generator: Adobe Illustrator 19.0.1, SVG Export Plug-In . SVG Version: 6.00 Build 0)  -->
<svg version="1.1" id="Layer_1" xmlns="http://www.w3.org/2000/svg" xmlns:xlink="http://www.w3.org/1999/xlink" x="0px" y="0px"
	 viewBox="0 0 143.3 143.3" style="enable-background:new 0 0 143.3 143.3;" xml:space="preserve">
<style type="text/css">
	.st0{fill:#138A44;}
	.st1{fill:#D55140;}
	.st2{fill:#EA632A;}
	.st3{fill:#F15D74;}
	.st4{fill:#78C3A2;}
	.st5{fill:#644A83;}
	.st6{fill:#D24537;}
	.st7{fill:#D49D3F;}
	.st8{fill:#175182;}
</style>
<path class="st5" d="M122.3,122.3c-14,14-30.9,20.9-50.7,20.9c-19.8,0-36.7-7-50.7-20.9C7,108.4,0,91.5,0,71.6
	c0-19.8,7-36.7,20.9-50.7C34.9,7,51.8,0,71.6,0c19.8,0,36.7,7,50.7,20.9c14,14,20.9,30.9,20.9,50.7
	C143.3,91.5,136.3,108.4,122.3,122.3z M115.8,27.4C103.7,15.3,89,9.2,71.6,9.2c-17.3,0-32,6.1-44.2,18.2
	C15.3,39.6,9.2,54.3,9.2,71.6c0,17.3,6.1,32,18.2,44.2c12.2,12.1,26.9,18.2,44.2,18.2c17.3,0,32-6.1,44.2-18.2
	c12.1-12.1,18.2-26.9,18.2-44.2C134.1,54.3,128,39.6,115.8,27.4z M92.6,69.5c-3.1-2-8.5-4-16.3-6.3V39c3.6,0.6,6.3,2.2,8,5
	c1.1,1.7,1.8,3.9,2.1,6.7c0,0.8,0.4,1.3,1.3,1.3h10.1c0.3,0,0.6-0.1,0.8-0.4c0.3-0.3,0.4-0.7,0.4-1.3c0-6.7-2.2-12.1-6.7-16.3
	c-3.6-3.6-8.9-5.9-15.9-6.7v-5.4c0-1.1-0.5-2.2-1.5-3.1c-1-1-2.1-1.5-3.4-1.5c-1.3,0-2.3,0.5-3.1,1.5c-0.8,1-1.3,2-1.3,3.1v5.4
	c-7,0.6-12.4,3.1-16.3,7.5C46.2,39.5,44,44.8,44,50.7c0,7,2.1,12.3,6.3,15.9c3.6,3.6,9.2,6.3,16.8,8v27.2c-4.5-0.8-7.7-2.9-9.6-6.3
	c-1.1-2-1.8-5.3-2.1-10.1c0-1.1-0.6-1.7-1.7-1.7H44c-1.1,0-1.7,0.6-1.7,1.7c0,6.4,1.1,11.7,3.4,15.9c3.9,7,11,10.9,21.4,11.7v7.5
	c0,1.4,0.4,2.5,1.3,3.4s1.9,1.3,3.1,1.3c1.3,0,2.4-0.4,3.4-1.3c1-0.8,1.5-2,1.5-3.4v-7.5c6.1-0.8,10.9-2.4,14.2-4.6
	c7-4.5,10.5-11.9,10.5-22.2C101,79,98.2,73.5,92.6,69.5z M60.3,57.8c-2.2-2-3.4-4.5-3.4-7.5c0-2.8,1-5.4,2.9-8
	c1.4-2,3.8-3.1,7.1-3.4v22.2C64.2,60.3,62,59.2,60.3,57.8z M85.9,95.9c-1.7,3.6-4.9,5.7-9.6,6.3V76.7c3.4,1.1,5.7,2.2,7.1,3.4
	c3.1,2,4.6,5,4.6,9.2C88,91.7,87.3,94,85.9,95.9z"/>
</svg>
