<?xml version="1.0" encoding="utf-8"?>
<!-- Generator: Adobe Illustrator 19.0.1, SVG Export Plug-In . SVG Version: 6.00 Build 0)  -->
<svg version="1.1" id="Layer_1" xmlns="http://www.w3.org/2000/svg" xmlns:xlink="http://www.w3.org/1999/xlink" x="0px" y="0px"
	 viewBox="0 0 140.8 91.3" style="enable-background:new 0 0 140.8 91.3;" xml:space="preserve">
<style type="text/css">
	.st0{fill:#138A44;}
	.st1{fill:#D55140;}
	.st2{fill:#EA632A;}
	.st3{fill:#F15D74;}
	.st4{fill:#78C3A2;}
	.st5{fill:#644A83;}
	.st6{fill:#D24537;}
	.st7{fill:#D49D3F;}
	.st8{fill:#175182;}
</style>
<path class="st4" d="M140.8,82.5c0,2.5-0.8,4.6-2.5,6.3s-3.8,2.5-6.3,2.5H8.8c-2.5,0-4.6-0.8-6.3-2.5S0,85,0,82.5V8.8
	c0-2.5,0.8-4.6,2.5-6.3S6.3,0,8.8,0H132c2.5,0,4.6,0.8,6.3,2.5s2.5,3.8,2.5,6.3V82.5z M6.7,6.5C5.9,7.2,5.4,8,5.4,8.8v8h129.9v-8
	c0-0.8-0.4-1.6-1-2.3c-0.7-0.7-1.5-1-2.3-1H8.8C8.2,5.4,7.5,5.8,6.7,6.5z M135.3,81.7V38.1H5.4v43.6c0,2,1.1,2.9,3.4,2.9H132
	C134.2,84.6,135.3,83.7,135.3,81.7z"/>
</svg>
