<?xml version="1.0" encoding="utf-8"?>
<!-- Generator: Adobe Illustrator 19.0.1, SVG Export Plug-In . SVG Version: 6.00 Build 0)  -->
<svg version="1.1" id="Layer_1" xmlns="http://www.w3.org/2000/svg" xmlns:xlink="http://www.w3.org/1999/xlink" x="0px" y="0px"
	 viewBox="0 0 139.9 119.1" style="enable-background:new 0 0 139.9 119.1;" xml:space="preserve">
<style type="text/css">
	.st0{fill:#138A44;}
	.st1{fill:#D55140;}
	.st2{fill:#EA632A;}
	.st3{fill:#F15D74;}
	.st4{fill:#78C3A2;}
	.st5{fill:#644A83;}
	.st6{fill:#D24537;}
	.st7{fill:#D49D3F;}
	.st8{fill:#175182;}
</style>
<path class="st5" d="M64.1,83.1v7.5c0,1.1-0.6,1.8-1.7,2.1l-9.6,1.7c-1.1,0.3-1.4,0.8-0.8,1.7l5.9,8.4c0.6,0.8,0.4,1.7-0.4,2.5
	l-5.4,5.4c-0.6,0.8-1.4,0.8-2.5,0l-8-5.4c-1.1-0.6-1.8-0.3-2.1,0.8l-1.7,9.6c-0.3,1.1-1,1.7-2.1,1.7h-7.1c-1.4,0-2.1-0.6-2.1-1.7
	l-1.7-9.6c-0.3-1.1-1-1.4-2.1-0.8l-8,5.4c-0.8,0.8-1.7,0.8-2.5,0l-5.4-5.4c-0.8-0.8-1-1.7-0.4-2.5l5.9-8.4c0.6-0.8,0.3-1.4-0.8-1.7
	l-9.6-1.7c-1.1-0.3-1.7-1-1.7-2.1v-7.5c0-1.1,0.6-1.8,1.7-2.1l9.6-1.7c1.1-0.3,1.3-0.8,0.4-1.7l-5.4-8c-0.6-1.1-0.4-2.1,0.4-2.9
	l5.4-5c0.8-0.8,1.7-1,2.5-0.4l8,5.4c1.1,0.6,1.8,0.4,2.1-0.4l1.7-9.6c0-1.1,0.7-1.7,2.1-1.7h7.1c1.1,0,1.8,0.6,2.1,1.7l1.7,9.6
	c0.3,1.1,1,1.3,2.1,0.4l8-5.4c1.1-0.6,2-0.4,2.5,0.4l5.4,5c0.8,0.8,1,1.8,0.4,2.9l-5.9,8c-0.6,0.8-0.3,1.4,0.8,1.7l9.6,1.7
	C63.5,81.2,64.1,81.9,64.1,83.1z M43.6,87c0-3.2-1.1-5.9-3.4-8.2c-2.2-2.2-5-3.4-8.2-3.4c-3.2,0-5.9,1.1-8.2,3.4
	c-2.2,2.2-3.4,5-3.4,8.2c0,3.2,1.1,5.9,3.4,8.2c2.2,2.2,5,3.4,8.2,3.4c3.2,0,5.9-1.1,8.2-3.4C42.5,93,43.6,90.2,43.6,87z M81.3,34
	l-2.1,6.3c-0.3,0.8-1,1.1-2.1,0.8l-8.4-1.3c-0.3,0-0.6,0.1-0.8,0.2c-0.3,0.1-0.3,0.5,0,1l1.7,8.4c0.3,0.8,0,1.5-0.8,2.1l-5.9,2.5
	c-0.8,0.6-1.5,0.4-2.1-0.4l-5-7.1c-0.6-0.8-1.1-0.8-1.7,0l-4.2,7.5c-0.6,0.8-1.4,1.1-2.5,0.8l-5.9-2.5c-0.8-0.3-1.3-0.8-1.3-1.7
	l1.7-8.4c0-0.6-0.1-0.9-0.4-1c-0.3-0.1-0.6-0.2-0.8-0.2l-8.4,2.1c-0.8,0.3-1.5-0.1-2.1-1.3l-2.9-5.9c-0.3-0.8,0-1.5,0.8-2.1l6.7-5
	c0.8-0.6,0.8-1.1,0-1.7l-7.1-4.2c-0.8-0.6-1.1-1.3-0.8-2.1l2.1-6.3c0.6-0.8,1.3-1.1,2.1-0.8l8.4,1.3c0.3,0,0.6-0.1,0.8-0.4
	c0.3-0.3,0.4-0.6,0.4-0.8l-2.1-8.4c-0.3-0.8,0-1.5,0.8-2.1l5.9-2.5c0.8-0.6,1.5-0.4,2.1,0.4l5,7.1c0.6,0.8,1.1,0.8,1.7,0l4.6-7.5
	c0.3-0.8,1-1.1,2.1-0.8l5.9,2.5c1.1,0.3,1.5,0.8,1.3,1.7l-1.3,8.4c-0.3,0.6-0.3,0.9,0,1c0.3,0.1,0.6,0.2,0.8,0.2l8.4-2.1
	c1.1-0.3,1.8,0,2.1,0.8l2.9,6.3c0.3,0.8,0,1.5-0.8,2.1l-6.7,5c-0.8,0.6-0.8,1.1,0,1.7l7.1,4.2C81.3,32.5,81.6,33.2,81.3,34z
	 M63.5,30.9c1-2.7,0.9-5.2-0.2-7.8c-1.1-2.5-3-4.2-5.7-5c-2.7-0.8-5.2-0.7-7.8,0.4c-2.5,1.1-4.3,3-5.2,5.7c-1,2.7-0.9,5.2,0.2,7.8
	c1.1,2.5,3,4.3,5.7,5.2c2.7,1,5.2,0.8,7.8-0.4C60.7,35.5,62.5,33.6,63.5,30.9z M139.9,70.5v8.8c0,1.4-0.7,2.2-2.1,2.5l-10.9,1.7
	c-1.4,0.3-1.7,1-0.8,2.1l6.3,9.6c0.8,1.1,0.7,2.1-0.4,2.9l-5.9,6.3c-0.8,0.8-1.8,0.8-2.9,0l-9.6-6.3c-1.1-0.8-1.8-0.6-2.1,0.8
	l-1.7,11.3c-0.3,1.1-1.1,1.7-2.5,1.7h-8.8c-1.1,0-1.8-0.6-2.1-1.7L94.3,99c-0.3-1.4-1-1.7-2.1-0.8l-9.2,6.3c-1.1,0.8-2.2,0.8-3.4,0
	l-5.9-6.3c-1.1-0.8-1.3-1.8-0.4-2.9l6.3-9.6c0.8-1.1,0.6-1.8-0.8-2.1l-10.9-1.7c-1.4-0.3-2.1-1.1-2.1-2.5v-8.8
	c0-1.1,0.7-1.8,2.1-2.1l10.9-2.1c1.4-0.3,1.7-1,0.8-2.1L73.3,55c-0.6-1.1-0.4-2.2,0.4-3.4l5.9-5.9c1.1-0.8,2.2-1,3.4-0.4l9.2,6.3
	c1.1,0.8,1.8,0.6,2.1-0.8l2.1-10.9c0.3-1.4,1-2.1,2.1-2.1h8.8c1.4,0,2.2,0.7,2.5,2.1l1.7,10.9c0.3,1.4,1,1.7,2.1,0.8l9.6-6.3
	c1.1-0.6,2.1-0.4,2.9,0.4l5.9,5.9c1.1,1.1,1.3,2.2,0.4,3.4l-6.3,9.2c-0.8,1.1-0.6,1.8,0.8,2.1l10.9,2.1
	C139.2,68.7,139.9,69.4,139.9,70.5z M116.5,75.1c0-3.6-1.3-6.8-4-9.4c-2.7-2.7-5.9-4-9.6-4c-3.8,0-6.9,1.3-9.4,4
	c-2.5,2.7-3.8,5.8-3.8,9.4c0,3.6,1.3,6.8,3.8,9.4c2.5,2.7,5.7,4,9.4,4c3.8,0,7-1.3,9.6-4C115.1,81.9,116.5,78.7,116.5,75.1z"/>
</svg>
