<?xml version="1.0" encoding="utf-8"?>
<!-- Generator: Adobe Illustrator 19.0.1, SVG Export Plug-In . SVG Version: 6.00 Build 0)  -->
<svg version="1.1" id="Layer_1" xmlns="http://www.w3.org/2000/svg" xmlns:xlink="http://www.w3.org/1999/xlink" x="0px" y="0px"
	 viewBox="0 0 103.1 147.5" style="enable-background:new 0 0 103.1 147.5;" xml:space="preserve">
<style type="text/css">
	.st0{fill:#138A44;}
	.st1{fill:#D55140;}
	.st2{fill:#EA632A;}
	.st3{fill:#F15D74;}
	.st4{fill:#78C3A2;}
	.st5{fill:#644A83;}
	.st6{fill:#D24537;}
	.st7{fill:#D49D3F;}
	.st8{fill:#175182;}
</style>
<path class="st8" d="M18.9,88l-1.7,0.4l-2.1-8.8c-0.3-2.5-1.7-3.5-4.2-2.9h-0.8c-2.2,0.6-3.1,2.1-2.5,4.6l1.7,8.8l-1.7,0.4l-3.8-4.2
	L0,82.1l1.7-5.9l1.7-5.4h1.3c-0.3-1.7-0.3-3.4,0-5C5.2,61,7.4,57.1,11.3,54c3.9-3.1,8.5-5,13.8-5.9c0.8-0.8,1.8-1.3,2.9-1.3h14.7
	v-2.1h-5.9c-2.2,0-3.4-1.1-3.4-3.4v-5.9h-2.1c-1.1,0-1.7-0.7-1.7-2.1V26c0-1.1,0.6-1.7,1.7-1.7h2.1v-7.5c0-2.2,1.1-3.4,3.4-3.4h13
	v-2.5c-3.1-0.6-4.6-2.2-4.6-5c0-1.7,0.6-3.1,1.7-4.2C48,0.6,49.4,0,50.9,0c1.5,0,2.9,0.6,4,1.7c1.1,1.1,1.7,2.5,1.7,4.2
	c0,3.1-1.5,4.9-4.6,5.4v2.1h12.6c2.5,0,3.8,1.1,3.8,3.4v7.5h2.1c1.1,0,1.7,0.6,1.7,1.7v7.5c0,1.4-0.6,2.1-1.7,2.1h-2.1v5.9
	c0,2.2-1.3,3.4-3.8,3.4h-5.9v2.1h14.7c1.4,0,2.5,0.6,3.4,1.7c3.6-0.6,6.6-1.7,8.8-3.6c2.2-1.8,3.5-3.8,3.8-6.1
	c0.3-0.6,0.3-1.1,0-1.7h-0.8l-3.8-4.2l-4.2-4.2l2.1-5.4l1.7-5.4l1.7-0.4l2.1,8.8c0.3,2.5,1.7,3.5,4.2,2.9H93
	c2.2-0.6,3.1-2.1,2.5-4.6l-1.7-8.8l1.7-0.4l3.8,4.2l3.8,4.2l-1.7,5.9l-1.7,5.4h-1.3c0.3,1.7,0.3,3.4,0,5c-0.6,5-2.9,9.1-6.9,12.1
	c-4.1,3.1-8.9,4.9-14.5,5.4v33.5c0,2.5-1.3,3.8-3.8,3.8h-0.8v39h2.1v10.1h2.1v3.4H51.9v-3.4h2.5v-10.1h2.1v-39H44.8v39h2.1v10.1
	l1.7-6.3v3.4H24.3v-3.4h2.1v-9.6h2.5V88.8h-0.8c-2.2,0-3.4-1.3-3.4-3.8V51.5C18,52.9,14.4,56,13.8,60.7c-0.3,0.6-0.3,1.1,0,1.7h0.8
	l3.8,4.2l4.2,4.2l-2.1,5.4l-1.7,5.9V88z M38.3,21.4c-1,1.1-1.5,2.4-1.5,3.8c0,1.4,0.5,2.7,1.5,3.8c1,1.1,2.2,1.7,3.8,1.7
	c1.5,0,2.8-0.6,3.8-1.7c1-1.1,1.5-2.4,1.5-3.8c0-1.4-0.5-2.7-1.5-3.8c-1-1.1-2.2-1.7-3.8-1.7C40.6,19.7,39.3,20.3,38.3,21.4z
	 M36.9,54v10.1c0,1.1,0.6,1.7,1.7,1.7h7.5c0.3-2.8,1.8-4.2,4.6-4.2c0.6,0,1.3,0.1,2.1,0.4l4.6-5.4c0.8-0.8,1.4-0.7,1.7,0.4
	c0,0.3-0.1,0.6-0.4,0.8L54,63.3c0.8,0.6,1.3,1.4,1.3,2.5h7.5c1.4,0,2.1-0.6,2.1-1.7V54c0-1.4-0.7-2.1-2.1-2.1H38.5
	C37.4,51.9,36.9,52.6,36.9,54z M38.5,37.5c0,2.4,1.3,3.6,3.8,3.6h17.2c2.5,0,3.8-1.2,3.8-3.6c0-2.4-1.3-3.6-3.8-3.6H42.3
	C39.8,33.9,38.5,35.1,38.5,37.5z M47.3,5.9c0,1.7,0.8,2.8,2.5,3.4V8.8c0-0.6,0.3-0.8,1-0.8c0.7,0,1,0.3,1,0.8v0.4
	c1.7-0.6,2.5-1.7,2.5-3.4c0-2.5-1.2-3.8-3.6-3.8C48.5,2.1,47.3,3.4,47.3,5.9z M55.7,21.4c-1.1,1.1-1.7,2.4-1.7,3.8
	c0,1.4,0.6,2.7,1.7,3.8c1.1,1.1,2.4,1.7,3.8,1.7c1.4,0,2.7-0.6,3.8-1.7c1.1-1.1,1.7-2.4,1.7-3.8c0-1.4-0.6-2.7-1.7-3.8
	c-1.1-1.1-2.4-1.7-3.8-1.7C58.1,19.7,56.8,20.3,55.7,21.4z"/>
</svg>
