<?xml version="1.0" encoding="utf-8"?>
<!-- Generator: Adobe Illustrator 19.0.1, SVG Export Plug-In . SVG Version: 6.00 Build 0)  -->
<svg version="1.1" id="Layer_1" xmlns="http://www.w3.org/2000/svg" xmlns:xlink="http://www.w3.org/1999/xlink" x="0px" y="0px"
	 viewBox="0 0 147.2 130.7" style="enable-background:new 0 0 147.2 130.7;" xml:space="preserve">
<style type="text/css">
	.st0{fill:#138A44;}
	.st1{fill:#D55140;}
	.st2{fill:#EA632A;}
	.st3{fill:#F15D74;}
	.st4{fill:#78C3A2;}
	.st5{fill:#644A83;}
	.st6{fill:#D24537;}
	.st7{fill:#D49D3F;}
	.st8{fill:#175182;}
</style>
<path class="st7" d="M86.1,7.1l58.7,101.8c3.1,4.8,3.1,9.6,0.2,14.5c-2.9,4.9-7.2,7.3-12.8,7.3H14.9c-5.6,0-9.8-2.4-12.8-7.3
	c-2.9-4.9-2.9-9.7,0.2-14.5L61,7.1C63.8,2.4,68,0,73.6,0C79.2,0,83.4,2.4,86.1,7.1z M69,11.7L10.3,113.5c-1.1,1.7-1.2,3.4-0.2,5.2
	c1,1.8,2.6,2.7,4.8,2.7h117.3c2.2,0,3.8-0.9,4.8-2.7c1-1.8,0.9-3.6-0.2-5.2L78.2,11.7c-0.8-1.7-2.4-2.5-4.6-2.5
	C71.3,9.2,69.8,10.1,69,11.7z M68.6,43.2c1.4-1.4,3.1-2.1,5-2.1c2,0,3.6,0.7,5,2.1c1.4,1.4,2.1,3.1,2.1,5v30.6
	c0,2.2-0.7,4.1-2.1,5.4c-1.4,1.4-3.1,2.1-5,2.1c-2,0-3.6-0.7-5-2.1c-1.4-1.4-2.1-3.2-2.1-5.4V48.2C66.5,46.2,67.2,44.6,68.6,43.2z
	 M73.6,91.7c-2,0-3.6,0.8-5,2.3c-1.4,1.5-2.1,3.3-2.1,5.2c0,2,0.7,3.6,2.1,5c1.4,1.4,3.1,2.1,5,2.1c2,0,3.6-0.7,5-2.1
	c1.4-1.4,2.1-3.1,2.1-5c0-2-0.7-3.7-2.1-5.2C77.2,92.5,75.5,91.7,73.6,91.7z"/>
</svg>
