<?xml version="1.0" encoding="utf-8"?>
<!-- Generator: Adobe Illustrator 19.0.1, SVG Export Plug-In . SVG Version: 6.00 Build 0)  -->
<svg version="1.1" id="Layer_1" xmlns="http://www.w3.org/2000/svg" xmlns:xlink="http://www.w3.org/1999/xlink" x="0px" y="0px"
	 viewBox="0 0 146.6 81.3" style="enable-background:new 0 0 146.6 81.3;" xml:space="preserve">
<style type="text/css">
	.st0{fill:#138A44;}
	.st1{fill:#D55140;}
	.st2{fill:#EA632A;}
	.st3{fill:#F15D74;}
	.st4{fill:#78C3A2;}
	.st5{fill:#644A83;}
	.st6{fill:#D24537;}
	.st7{fill:#D49D3F;}
	.st8{fill:#175182;}
</style>
<path class="st3" d="M143.9,2.7c1.8,1.8,2.7,4,2.7,6.5v62.8c0,2.5-0.9,4.7-2.7,6.5c-1.8,1.8-4,2.7-6.5,2.7H9.2
	c-2.5,0-4.7-0.9-6.5-2.7c-1.8-1.8-2.7-4-2.7-6.5V9.2c0-2.5,0.9-4.7,2.7-6.5C4.5,0.9,6.7,0,9.2,0h128.2C139.9,0,142.1,0.9,143.9,2.7z
	 M137.4,9.2H9.2v62.8h128.2V9.2z M21.8,53.2c1.1,0,2.1,0.4,2.9,1.3s1.3,1.8,1.3,2.9c0,1.1-0.4,2.1-1.3,2.9s-1.8,1.3-2.9,1.3
	c-1.1,0-2.2-0.4-3.1-1.3c-1-0.8-1.5-1.8-1.5-2.9c0-1.1,0.5-2.1,1.5-2.9C19.6,53.6,20.7,53.2,21.8,53.2z M24.7,19.7
	c1.1,0,2.1,0.4,2.9,1.3s1.3,1.8,1.3,2.9c0,1.4-0.4,2.5-1.3,3.4s-1.8,1.3-2.9,1.3c-1.1,0-2.1-0.4-2.9-1.3s-1.3-1.9-1.3-3.1
	c0-1.3,0-1.9,0-1.9s0.4-0.4,1.3-1.3S23.6,19.7,24.7,19.7z M30.8,36.4c1.3,0,2.3,0.4,3.1,1.3s1.3,1.8,1.3,2.9c0,1.1-0.4,2.1-1.3,2.9
	s-1.9,1.3-3.1,1.3c-1.3,0-2.3-0.4-3.1-1.3s-1.3-1.8-1.3-2.9c0-1.1,0.4-2.1,1.3-2.9S29.5,36.4,30.8,36.4z M35.2,53.2
	c1.1,0,2.1,0.4,2.9,1.3s1.3,1.8,1.3,2.9c0,1.1-0.4,2.1-1.3,2.9s-1.8,1.3-2.9,1.3c-1.1,0-2.1-0.4-2.9-1.3S31,58.5,31,57.4
	c0-1.1,0.4-2.1,1.3-2.9S34.1,53.2,35.2,53.2z M38.1,19.7c1.1,0,2.2,0.4,3.1,1.3c1,0.8,1.5,1.8,1.5,2.9c0,1.4-0.5,2.5-1.5,3.4
	c-1,0.8-2,1.3-3.1,1.3c-1.1,0-2.1-0.4-2.9-1.3s-1.3-1.9-1.3-3.1c0-1.3,0-1.9,0-1.9s0.4-0.4,1.3-1.3S37,19.7,38.1,19.7z M44.4,36.4
	c1.1,0,2.1,0.4,2.9,1.3s1.3,1.8,1.3,2.9c0,1.1-0.4,2.1-1.3,2.9s-1.8,1.3-2.9,1.3c-1.1,0-2.2-0.4-3.1-1.3c-1-0.8-1.5-1.8-1.5-2.9
	c0-1.1,0.5-2.1,1.5-2.9C42.2,36.9,43.3,36.4,44.4,36.4z M101.8,54.5c0.8,0.8,1.3,1.8,1.3,2.9c0,1.1-0.4,2.1-1.3,2.9s-2,1.3-3.4,1.3
	H48.6c-1.1,0-2.1-0.4-2.9-1.3s-1.3-1.8-1.3-2.9c0-1.1,0.4-2.1,1.3-2.9s1.8-1.3,2.9-1.3h49.9C99.8,53.2,101,53.6,101.8,54.5z
	 M51.7,19.7c1.3,0,2.3,0.4,3.1,1.3s1.3,1.8,1.3,2.9c0,1.4-0.4,2.5-1.3,3.4s-1.9,1.3-3.1,1.3c-1.3,0-2.3-0.4-3.1-1.3
	s-1.3-1.9-1.3-3.1c0-1.3,0-1.9,0-1.9s0.4-0.4,1.3-1.3S50.5,19.7,51.7,19.7z M57.8,36.4c1.1,0,2.1,0.4,2.9,1.3s1.3,1.8,1.3,2.9
	c0,1.1-0.4,2.1-1.3,2.9s-1.8,1.3-2.9,1.3c-1.1,0-2.1-0.4-2.9-1.3s-1.3-1.8-1.3-2.9c0-1.1,0.4-2.1,1.3-2.9S56.7,36.4,57.8,36.4z
	 M65.1,19.7c1.3,0,2.3,0.4,3.1,1.3s1.3,1.8,1.3,2.9c0,1.4-0.4,2.5-1.3,3.4s-1.9,1.3-3.1,1.3c-1.3,0-2.3-0.4-3.1-1.3
	s-1.3-1.9-1.3-3.1c0-1.3,0-1.9,0-1.9s0.4-0.4,1.3-1.3S63.9,19.7,65.1,19.7z M71.2,36.4c1.1,0,2.1,0.4,2.9,1.3s1.3,1.8,1.3,2.9
	c0,1.1-0.4,2.1-1.3,2.9s-1.8,1.3-2.9,1.3c-1.1,0-2.1-0.4-2.9-1.3S67,41.8,67,40.6c0-1.1,0.4-2.1,1.3-2.9S70.1,36.4,71.2,36.4z
	 M78.6,19.7c1.3,0,2.3,0.4,3.1,1.3s1.3,1.8,1.3,2.9c0,1.4-0.4,2.5-1.3,3.4s-1.9,1.3-3.1,1.3c-1.3,0-2.3-0.4-3.1-1.3
	s-1.3-1.9-1.3-3.1c0-1.3,0-1.9,0-1.9s0.4-0.4,1.3-1.3S77.3,19.7,78.6,19.7z M84.6,36.4c1.1,0,2.1,0.4,2.9,1.3s1.3,1.8,1.3,2.9
	c0,1.1-0.4,2.1-1.3,2.9s-1.8,1.3-2.9,1.3c-1.1,0-2.1-0.4-2.9-1.3s-1.3-1.8-1.3-2.9c0-1.1,0-1.7,0-1.7s0.4-0.4,1.3-1.3
	S83.5,36.4,84.6,36.4z M92,19.7c1.3,0,2.3,0.4,3.1,1.3s1.3,1.8,1.3,2.9c0,1.4-0.4,2.5-1.3,3.4s-1.9,1.3-3.1,1.3
	c-1.3,0-2.3-0.4-3.1-1.3s-1.3-1.9-1.3-3.1c0-1.3,0-1.9,0-1.9s0.4-0.4,1.3-1.3S90.7,19.7,92,19.7z M98,36.4c1.1,0,2.1,0.4,2.9,1.3
	s1.3,1.8,1.3,2.9c0,1.1-0.4,2.1-1.3,2.9s-1.8,1.3-2.9,1.3c-1.1,0-2.1-0.4-2.9-1.3s-1.3-1.8-1.3-2.9c0-1.1,0.4-2.1,1.3-2.9
	S96.9,36.4,98,36.4z M105.4,19.7c1.3,0,2.3,0.4,3.1,1.3s1.3,1.8,1.3,2.9c0,1.4-0.4,2.5-1.3,3.4s-1.9,1.3-3.1,1.3
	c-1.3,0-2.3-0.4-3.1-1.3s-1.3-1.9-1.3-3.1c0-1.3,0-1.9,0-1.9s0.4-0.4,1.3-1.3S104.1,19.7,105.4,19.7z M111.4,36.4
	c1.1,0,2.1,0.4,2.9,1.3s1.3,1.8,1.3,2.9c0,1.1-0.4,2.1-1.3,2.9s-1.8,1.3-2.9,1.3c-1.1,0-2.1-0.4-2.9-1.3s-1.3-1.8-1.3-2.9
	c0-1.1,0.4-2.1,1.3-2.9S110.3,36.4,111.4,36.4z M111.4,53.2c1.1,0,2.1,0.4,2.9,1.3s1.3,1.8,1.3,2.9c0,1.1-0.4,2.1-1.3,2.9
	s-1.8,1.3-2.9,1.3c-1.1,0-2.1-0.4-2.9-1.3s-1.3-1.8-1.3-2.9c0-1.1,0.4-2.1,1.3-2.9S110.3,53.2,111.4,53.2z M118.8,19.7
	c1.3,0,2.3,0.4,3.1,1.3s1.3,1.8,1.3,2.9c0,1.4-0.4,2.5-1.3,3.4s-1.9,1.3-3.1,1.3c-1.3,0-2.3-0.4-3.1-1.3s-1.3-1.9-1.3-3.1
	c0-1.3,0-1.9,0-1.9s0.4-0.4,1.3-1.3S117.5,19.7,118.8,19.7z M124.8,53.2c1.1,0,2.2,0.4,3.1,1.3c1,0.8,1.5,1.8,1.5,2.9
	c0,1.1-0.5,2.1-1.5,2.9c-1,0.8-2,1.3-3.1,1.3c-1.1,0-2.1-0.4-2.9-1.3s-1.3-1.8-1.3-2.9c0-1.1,0.4-2.1,1.3-2.9S123.7,53.2,124.8,53.2
	z"/>
</svg>
