<?xml version="1.0" encoding="utf-8"?>
<!-- Generator: Adobe Illustrator 19.0.1, SVG Export Plug-In . SVG Version: 6.00 Build 0)  -->
<svg version="1.1" id="Layer_1" xmlns="http://www.w3.org/2000/svg" xmlns:xlink="http://www.w3.org/1999/xlink" x="0px" y="0px"
	 viewBox="0 0 100.5 147.5" style="enable-background:new 0 0 100.5 147.5;" xml:space="preserve">
<style type="text/css">
	.st0{fill:#138A44;}
	.st1{fill:#D55140;}
	.st2{fill:#EA632A;}
	.st3{fill:#F15D74;}
	.st4{fill:#78C3A2;}
	.st5{fill:#644A83;}
	.st6{fill:#D24537;}
	.st7{fill:#D49D3F;}
	.st8{fill:#175182;}
</style>
<path class="st6" d="M100.5,50.3c0,0.8,0,1.5,0,2.1c-0.3,5-1.3,10.1-2.9,15.1c-3.1,10.1-8.7,22.1-17,36c-8.2,14-14.6,23.9-19.1,29.7
	c-4.5,5.9-8,10.3-10.5,13.4c0,0.6-0.3,0.8-0.8,0.8c-0.6,0-0.8-0.3-0.8-0.8c-2.5-3.1-6-7.5-10.5-13.4c-4.5-5.9-10.8-15.8-19.1-29.7
	c-8.2-14-13.9-26-17-36c-1.7-5-2.7-10.1-2.9-15.1c0-0.8,0-1.5,0-2.1c0-13.7,4.9-25.5,14.7-35.4C24.4,5,36.3,0,50.3,0
	c14,0,25.8,5,35.6,14.9C95.7,24.8,100.5,36.6,100.5,50.3z M77.1,50.3c0-7.3-2.6-13.5-7.8-18.6c-5.2-5.2-11.5-7.8-18.9-7.8
	c-7.4,0-13.7,2.6-18.9,7.8c-5.2,5.2-7.8,11.4-7.8,18.6c0,7.3,2.6,13.5,7.8,18.6c5.2,5.2,11.4,7.8,18.9,7.8c7.4,0,13.7-2.6,18.9-7.8
	C74.5,63.8,77.1,57.5,77.1,50.3z"/>
</svg>
