<?xml version="1.0" encoding="utf-8"?>
<!-- Generator: Adobe Illustrator 19.0.1, SVG Export Plug-In . SVG Version: 6.00 Build 0)  -->
<svg version="1.1" id="Layer_1" xmlns="http://www.w3.org/2000/svg" xmlns:xlink="http://www.w3.org/1999/xlink" x="0px" y="0px"
	 viewBox="0 0 136.6 108.9" style="enable-background:new 0 0 136.6 108.9;" xml:space="preserve">
<style type="text/css">
	.st0{fill:#138A44;}
	.st1{fill:#D55140;}
	.st2{fill:#EA632A;}
	.st3{fill:#F15D74;}
	.st4{fill:#78C3A2;}
	.st5{fill:#644A83;}
	.st6{fill:#D24537;}
	.st7{fill:#D49D3F;}
	.st8{fill:#175182;}
</style>
<path class="st3" d="M39.8,76.2L8,44v15.5c0,2.5-1.3,3.8-4,3.8c-2.7,0-4-1.3-4-3.8V34.8c0-0.3,0-0.6,0-0.8v-0.4l0.4-0.4
	c0-0.3,0.1-0.6,0.4-0.8v-0.4h0.4l0.4-0.4L2.5,31h0.4c0.3-0.3,0.6-0.4,0.8-0.4h25.1c1.1,0,2,0.4,2.7,1.3c0.7,0.8,1,1.8,1,2.9
	c0,2.5-1.3,3.8-3.8,3.8H13.4l31.8,32.3c2,1.7,2,3.4,0.2,5.2C43.6,77.9,41.8,77.9,39.8,76.2z M72.5,59.1V13.4l10.9,10.9
	c2,2,3.8,2,5.7,0.2c1.8-1.8,1.7-3.7-0.2-5.7L71.2,1.3l-0.4-0.4h-0.4L70,0.4h-0.4h-0.4L68.7,0h-0.4l-0.4,0.4H67
	c-0.3,0.3-0.6,0.4-0.8,0.4c0,0.3-0.1,0.4-0.4,0.4L48.2,18.9c-0.8,0.8-1.3,1.8-1.3,2.9c0,1.1,0.4,2,1.3,2.5c2,2,3.8,2,5.4,0
	l10.9-10.9v45.7c0,2.5,1.3,3.8,4,3.8C71.1,62.8,72.5,61.6,72.5,59.1z M81.7,77.3c3.6,3.5,5.4,7.8,5.4,13c0,5.2-1.8,9.6-5.4,13.2
	c-3.6,3.6-8,5.4-13.2,5.4c-5.2,0-9.5-1.8-13-5.4c-3.5-3.6-5.2-8-5.2-13.2c0-5.2,1.7-9.5,5.2-13c3.5-3.5,7.8-5.2,13-5.2
	C73.7,72.1,78.1,73.8,81.7,77.3z M96.8,76.2L128.6,44v15.5c0,2.5,1.3,3.8,4,3.8c2.7,0,4-1.3,4-3.8V34.8c0-0.3,0-0.6,0-0.8v-0.4
	l-0.4-0.4c0-0.3-0.1-0.6-0.4-0.8v-0.4h-0.4l-0.4-0.4l-0.8-0.4h-0.4c-0.3-0.3-0.6-0.4-0.8-0.4h-25.1c-1.1,0-2,0.4-2.7,1.3
	c-0.7,0.8-1,1.8-1,2.9c0,2.5,1.3,3.8,3.8,3.8h15.5L91.3,70.8c-2,1.7-2,3.4-0.2,5.2C92.9,77.9,94.8,77.9,96.8,76.2z"/>
</svg>
