<?xml version="1.0" encoding="utf-8"?>
<!-- Generator: Adobe Illustrator 19.0.1, SVG Export Plug-In . SVG Version: 6.00 Build 0)  -->
<svg version="1.1" id="Layer_1" xmlns="http://www.w3.org/2000/svg" xmlns:xlink="http://www.w3.org/1999/xlink" x="0px" y="0px"
	 viewBox="0 0 144.1 98.9" style="enable-background:new 0 0 144.1 98.9;" xml:space="preserve">
<style type="text/css">
	.st0{fill:#138A44;}
	.st1{fill:#D55140;}
	.st2{fill:#EA632A;}
	.st3{fill:#F15D74;}
	.st4{fill:#78C3A2;}
	.st5{fill:#644A83;}
	.st6{fill:#D24537;}
	.st7{fill:#D49D3F;}
	.st8{fill:#175182;}
</style>
<path class="st0" d="M139.1,30.4c3.4,3.2,5,7.1,5,11.5c0,4.5-1.5,8.2-4.6,11.3v33.5c0,3.4-1.4,6.2-4.2,8.6
	c-2.8,2.4-6.1,3.6-10.1,3.6c-3.6,0-6.8-1-9.4-2.9c-2.7-2-4.3-4.5-4.8-7.5h-0.4H33.5h-0.4c-0.6,3.1-2.2,5.6-4.8,7.5
	c-2.7,2-5.8,2.9-9.4,2.9c-3.9,0-7.3-1.2-10.1-3.6c-2.8-2.4-4.2-5.2-4.2-8.6V53.2C1.5,50.1,0,46.4,0,41.9c0-4.5,1.7-8.3,5-11.5
	c3.4-3.2,7.3-4.8,11.7-4.8c2.5,0,5,0.6,7.5,1.7v-7.1v-0.4c0-5.3,2-9.9,5.9-13.8C34.1,2,38.8,0,44.4,0h55.3c5.6,0,10.3,2,14.2,5.9
	c3.9,3.9,5.9,8.5,5.9,13.8v0.4v7.1c2.5-1.1,5-1.7,7.5-1.7C131.8,25.6,135.7,27.2,139.1,30.4z M23,41.9v-0.4c0-1.7-0.6-3.1-1.9-4.2
	c-1.3-1.1-2.7-1.7-4.4-1.7s-3.1,0.6-4.4,1.9c-1.3,1.3-1.9,2.7-1.9,4.4c0,2.2,0.8,3.9,2.5,5l2.1,1.7v38.1c0,1.4,1.3,2.1,4,2.1
	c2.7,0,4-0.7,4-2.1V41.9z M110.2,77.9V67l-0.4-2.9c0-0.3-0.1-0.6-0.4-1c-0.3-0.4-0.4-0.8-0.4-1c-1.7-2.8-4.2-4.2-7.5-4.2H42.7
	c-3.4,0-5.9,1.4-7.5,4.2c0,0.3-0.1,0.7-0.4,1.3c-0.3,0.3-0.4,0.6-0.4,0.8c0,0.6-0.1,1.5-0.4,2.9v10.9H110.2z M34.4,49.4
	c2.8-1.1,5.6-1.7,8.4-1.7h58.7c2.8,0,5.6,0.6,8.4,1.7V20.1c0-2.8-1-5.2-2.9-7.1c-2-2-4.3-2.9-7.1-2.9H44.4c-2.8,0-5.2,1-7.1,2.9
	c-2,2-2.9,4.3-2.9,7.1V49.4z M133.6,41.9c0-1.7-0.6-3.1-1.9-4.4c-1.3-1.3-2.7-1.9-4.4-1.9s-3.1,0.6-4.4,1.7
	c-1.3,1.1-1.9,2.5-1.9,4.2v0.4v44.8c0,1.4,1.3,2.1,4,2.1c2.7,0,4-0.7,4-2.1V48.6l2.1-1.7C132.8,45.8,133.6,44.1,133.6,41.9z"/>
</svg>
