<?xml version="1.0" encoding="utf-8"?>
<!-- Generator: Adobe Illustrator 19.0.1, SVG Export Plug-In . SVG Version: 6.00 Build 0)  -->
<svg version="1.1" id="Layer_1" xmlns="http://www.w3.org/2000/svg" xmlns:xlink="http://www.w3.org/1999/xlink" x="0px" y="0px"
	 viewBox="0 0 133.5 116.5" style="enable-background:new 0 0 133.5 116.5;" xml:space="preserve">
<style type="text/css">
	.st0{fill:#138A44;}
	.st1{fill:#D55140;}
	.st2{fill:#EA632A;}
	.st3{fill:#F15D74;}
	.st4{fill:#78C3A2;}
	.st5{fill:#644A83;}
	.st6{fill:#D24537;}
	.st7{fill:#D49D3F;}
	.st8{fill:#175182;}
</style>
<path class="st4" d="M40.4,116.5H10.2c-2.8,0-5.3-1.7-7.5-5c-3.1-4.2-3.5-9.6-1.3-16.3c4.5-12.6,10.9-22.3,19.3-29.3
	C16.2,61,14,55.4,14,49c0-7,2.4-12.8,7.1-17.6c4.7-4.7,10.5-7.1,17.2-7.1s12.4,2.4,17.2,7.1c4.7,4.8,7.1,10.6,7.1,17.6
	c0,7-2.7,12.8-8,17.6c0.3,0.3,0.7,0.7,1.3,1.3c-1.7,2.2-3.1,4.5-4.2,6.7c-2-2-3.8-3.5-5.4-4.6l-5.4-3.8l5.4-2.9
	c5.6-3.4,8.4-8.1,8.4-14.2c0-4.7-1.6-8.7-4.8-11.9c-3.2-3.2-7.1-4.8-11.7-4.8c-4.6,0-8.5,1.6-11.7,4.8c-3.2,3.2-4.8,7.2-4.8,11.9
	c0,5.9,2.5,10.5,7.5,13.8l5,3.4l-5,3.4c-3.9,2.2-7.5,5.9-10.9,10.9s-5.6,8.9-6.7,11.7c-1.1,2.8-2,4.9-2.5,6.3
	c-1.4,3.9-1.4,6.8,0,8.8l1.3,1.7h28.9L40.4,116.5z M131.7,113.5c-1.4,2-2.5,2.9-3.4,2.9H51.7c-0.8,0-2-1-3.4-2.9
	c-2.2-3.1-2.2-7.8,0-14.2C57.3,76.4,67.7,62,79.8,56.1c3.9,1.7,7.8,2.5,11.7,2.5c3.6,0,7-0.6,10.1-1.7c11.4,6.1,21.6,20.3,30.6,42.3
	C134.1,105.7,133.9,110.5,131.7,113.5z M117,25.6c0,7-2.5,12.9-7.5,17.8c-5,4.9-11,7.3-18,7.3c-7,0-12.9-2.4-17.8-7.3
	c-4.9-4.9-7.3-10.8-7.3-17.8c0-7,2.4-13,7.3-18C78.6,2.5,84.5,0,91.5,0c7,0,13,2.5,18,7.5S117,18.6,117,25.6z"/>
</svg>
