<?xml version="1.0" encoding="utf-8"?>
<!-- Generator: Adobe Illustrator 19.0.1, SVG Export Plug-In . SVG Version: 6.00 Build 0)  -->
<svg version="1.1" id="Layer_1" xmlns="http://www.w3.org/2000/svg" xmlns:xlink="http://www.w3.org/1999/xlink" x="0px" y="0px"
	 viewBox="0 0 127 116.5" style="enable-background:new 0 0 127 116.5;" xml:space="preserve">
<style type="text/css">
	.st0{fill:#138A44;}
	.st1{fill:#D55140;}
	.st2{fill:#EA632A;}
	.st3{fill:#F15D74;}
	.st4{fill:#78C3A2;}
	.st5{fill:#644A83;}
	.st6{fill:#D24537;}
	.st7{fill:#D49D3F;}
	.st8{fill:#175182;}
</style>
<path class="st2" d="M91.3,110.2c-3.1,4.2-6.3,6.3-9.6,6.3H51.5h-8.4H13c-3.6,0-7-2.1-10.1-6.3c-3.6-5-3.9-11.9-0.8-20.5
	c5-15.4,12.6-27.5,22.6-36.4c-6.4-6.1-9.6-13.7-9.6-22.6c0-8.4,3-15.6,9-21.6c6-6,13.3-9,22-9c0.6,0,0.9,0,1,0c0.1,0,0.3,0,0.6,0
	c0.3,0,0.6,0,0.8,0C57,0,64.2,3,70.2,9c6,6,9,13.2,9,21.6c0,8.9-3.2,16.5-9.6,22.6c4.5,3.9,8.6,9,12.4,15.3c3.8,6.3,6.3,11,7.8,14
	c1.4,3.1,2.4,5.4,2.9,7.1C95.4,98.3,95,105.2,91.3,110.2z M83.4,93.8c-4.2-12.3-10.2-22.5-18-30.6c-0.8-0.8-1.8-1.8-2.9-2.9
	c-0.3-0.3-0.6-0.6-0.8-0.8c-0.3,0-0.8-0.3-1.7-0.8c-0.8-0.8-1.5-1.4-2.1-1.7l-6.7-4.2l6.3-4.6c6.4-3.9,9.6-9.8,9.6-17.6
	c0-5.6-2-10.3-5.9-14.2c-3.9-3.9-8.5-6.1-13.8-6.7c-5.6,0.6-10.3,2.8-14.2,6.7c-3.9,3.9-5.9,8.7-5.9,14.2c0,7.8,3.2,13.7,9.6,17.6
	l6.7,4.6L36.5,57c-0.3,0.3-1,0.8-2.1,1.7c-0.8,0.6-1.4,0.8-1.7,0.8c0,0.3-0.3,0.6-0.8,0.8c-1.1,1.1-2.1,2.1-2.9,2.9
	c-7.8,8.4-13.7,18.6-17.6,30.6c-1.7,5-1.8,8.7-0.4,10.9l2.1,2.5h31.8h4.6h32.3l1.7-2.5C85.1,102.5,85.1,98.9,83.4,93.8z M125.7,59.3
	c0.8-1,1.3-2.1,1.3-3.4c0-1.3-0.4-2.3-1.3-3.1s-1.8-1.3-2.9-1.3H95.1c-1.4,0-2.5,0.4-3.4,1.3s-1.3,1.9-1.3,3.1
	c0,1.3,0.4,2.4,1.3,3.4c0.8,1,2,1.5,3.4,1.5h27.7C123.9,60.7,124.9,60.3,125.7,59.3z M113.6,69.5V42.3c0-1.4-0.5-2.5-1.5-3.4
	c-1-0.8-2.1-1.3-3.4-1.3c-1.3,0-2.3,0.4-3.1,1.3s-1.3,2-1.3,3.4v27.2c0,1.4,0.4,2.5,1.3,3.4s1.9,1.3,3.1,1.3c1.3,0,2.4-0.4,3.4-1.3
	C113.1,72.1,113.6,70.9,113.6,69.5z"/>
</svg>
