<?xml version="1.0" encoding="utf-8"?>
<!-- Generator: Adobe Illustrator 19.0.1, SVG Export Plug-In . SVG Version: 6.00 Build 0)  -->
<svg version="1.1" id="Layer_1" xmlns="http://www.w3.org/2000/svg" xmlns:xlink="http://www.w3.org/1999/xlink" x="0px" y="0px"
	 viewBox="0 0 103.1 174.3" style="enable-background:new 0 0 103.1 174.3;" xml:space="preserve">
<style type="text/css">
	.st0{fill:#138A44;}
	.st1{fill:#D55140;}
	.st2{fill:#EA632A;}
	.st3{fill:#F15D74;}
	.st4{fill:#78C3A2;}
	.st5{fill:#644A83;}
	.st6{fill:#D24537;}
	.st7{fill:#D49D3F;}
	.st8{fill:#175182;}
</style>
<path class="st0" d="M100.3,2.7c1.8,1.8,2.7,4,2.7,6.5v155.8c0,2.5-0.9,4.7-2.7,6.5c-1.8,1.8-4,2.7-6.5,2.7H9.2
	c-2.5,0-4.7-0.9-6.5-2.7c-1.8-1.8-2.7-4-2.7-6.5V9.2c0-2.5,0.9-4.7,2.7-6.5C4.5,0.9,6.7,0,9.2,0h84.6C96.4,0,98.5,0.9,100.3,2.7z
	 M92.6,11.7H10.5v132.8h82.1V11.7z M59.9,159.2c0-2.2-0.8-4.2-2.5-5.9s-3.6-2.5-5.9-2.5c-2.2,0-4.2,0.8-5.9,2.5s-2.5,3.6-2.5,5.9
	c0,2.2,0.8,4.1,2.5,5.7c1.7,1.5,3.6,2.3,5.9,2.3c2.2,0,4.2-0.8,5.9-2.3C59.1,163.3,59.9,161.4,59.9,159.2z"/>
</svg>
