<?xml version="1.0" encoding="utf-8"?>
<!-- Generator: Adobe Illustrator 19.0.1, SVG Export Plug-In . SVG Version: 6.00 Build 0)  -->
<svg version="1.1" id="Layer_1" xmlns="http://www.w3.org/2000/svg" xmlns:xlink="http://www.w3.org/1999/xlink" x="0px" y="0px"
	 viewBox="0 0 139.9 158.4" style="enable-background:new 0 0 139.9 158.4;" xml:space="preserve">
<style type="text/css">
	.st0{fill:#138A44;}
	.st1{fill:#D55140;}
	.st2{fill:#EA632A;}
	.st3{fill:#F15D74;}
	.st4{fill:#78C3A2;}
	.st5{fill:#644A83;}
	.st6{fill:#D24537;}
	.st7{fill:#D49D3F;}
	.st8{fill:#175182;}
</style>
<path class="st0" d="M119.4,137.8c-13.7,13.7-30.2,20.5-49.4,20.5s-35.8-6.8-49.4-20.5C6.8,124.2,0,107.7,0,88.4
	c0-15.1,4.3-28.7,13-40.8C21.6,35.4,33.1,27,47.3,22.2c1.7-0.6,3.3-0.5,4.8,0.2c1.5,0.7,2.6,1.9,3.1,3.6c0.6,1.7,0.4,3.3-0.4,4.8
	c-0.8,1.5-2,2.4-3.4,2.7C39.8,37.7,30.3,44.8,23,54.9c-7.3,10.1-10.9,21.2-10.9,33.5c0,15.9,5.7,29.5,17,40.8
	c11.3,11.3,24.9,17,40.8,17s29.5-5.7,40.8-17c11.3-11.3,17-24.9,17-40.8c0-12.3-3.6-23.5-10.7-33.5c-7.1-10.1-16.5-17-28.3-20.9
	c-1.7-0.6-2.9-1.6-3.6-3.1c-0.7-1.5-0.8-3.1-0.2-4.8c0.6-1.7,1.6-2.9,3.1-3.6c1.5-0.7,3.1-0.8,4.8-0.2c14,5,25.3,13.6,33.9,25.8
	c8.7,12.1,13,25.6,13,40.4C139.9,107.7,133.1,124.2,119.4,137.8z M74.4,58.7c-1.3,1.1-2.7,1.7-4.4,1.7s-3.1-0.6-4.4-1.7
	c-1.3-1.1-1.9-2.5-1.9-4.2V6.3c0-1.7,0.6-3.1,1.9-4.4C66.8,0.6,68.3,0,70,0s3.1,0.6,4.4,1.9c1.3,1.3,1.9,2.7,1.9,4.4v48.2
	C76.2,56.1,75.6,57.5,74.4,58.7z"/>
</svg>
