<?xml version="1.0" encoding="utf-8"?>
<!-- Generator: Adobe Illustrator 18.1.1, SVG Export Plug-In . SVG Version: 6.00 Build 0)  -->
<svg version="1.1" id="Layer_7" xmlns="http://www.w3.org/2000/svg" xmlns:xlink="http://www.w3.org/1999/xlink" x="0px" y="0px"
	 viewBox="0 0 86.2 86.2" enable-background="new 0 0 86.2 86.2" xml:space="preserve">
<g>
	<circle fill="#F5F5F5" cx="43.1" cy="43" r="43"/>
</g>
<g>
	<rect x="21.8" y="17" fill="#59AFE1" width="43.1" height="29.8"/>
</g>
<g>
	<path fill="#FFB600" d="M73.1,65.1c0,2.2-1.8,4.2-4.2,4.2H18.3c-2.4,0-4.2-2-4.2-4.2v-0.7h59V65.1z"/>
	<path fill="#205081" d="M68.9,70H18.3c-2.7,0-4.9-2.2-4.9-4.9v-1.4h60.4v1.4C73.8,67.8,71.6,70,68.9,70z M14.8,65L14.8,65
		c0,2,1.6,3.6,3.5,3.6h50.6c1.9,0,3.5-1.6,3.5-3.5V65H14.8z"/>
</g>
<g>
	<g>
		<path fill="#FFFFFF" d="M14.1,64.3h59c0-0.7-0.2-1.4-0.2-1.4l-4.1-10c-0.6-1.7-2.2-2.8-4-2.8H22.3c-1.8,0-3.4,1.1-4,2.8l-4.1,10
			C14.3,62.9,14.1,63.8,14.1,64.3h59"/>
		<path fill="#205081" d="M73.8,65H13.4v-0.7c0-0.6,0.2-1.5,0.2-1.6l0-0.1l4.1-10c0.7-1.9,2.5-3.2,4.6-3.2h42.5
			c2.1,0,3.9,1.3,4.6,3.3l4.1,10c0,0,0.2,0.8,0.2,1.6V65z M14.9,63.6h57.5c0-0.2-0.1-0.4-0.1-0.5l-4-10c-0.5-1.4-1.8-2.4-3.3-2.4
			H22.3c-1.5,0-2.8,0.9-3.3,2.4l-4,10C14.9,63.3,14.9,63.5,14.9,63.6z"/>
	</g>
</g>
<g>
	<path fill="#FFFFFF" d="M64.9,14.6h-43c-1.5,0-2.8,1.2-2.8,2.8v29.9c0,1.5,1.2,2.8,2.8,2.8h43c1.5,0,2.8-1.2,2.8-2.8V17.4
		C67.7,15.8,66.4,14.6,64.9,14.6z M63.3,44.4c0,0.8-0.6,1.4-1.4,1.4h-37c-0.8,0-1.4-0.6-1.4-1.4V20.2c0-0.8,0.6-1.4,1.4-1.4h37
		c0.8,0,1.4,0.6,1.4,1.4V44.4z"/>
	<path fill="#205081" d="M64.9,50.7h-43c-1.9,0-3.5-1.5-3.5-3.5V17.4c0-1.9,1.5-3.5,3.5-3.5h43c1.9,0,3.5,1.5,3.5,3.5v29.9
		C68.4,49.1,66.8,50.7,64.9,50.7z M21.9,15.3c-1.1,0-2.1,0.9-2.1,2.1v29.9c0,1.1,0.9,2.1,2.1,2.1h43c1.1,0,2.1-0.9,2.1-2.1V17.4
		c0-1.1-0.9-2.1-2.1-2.1H21.9z M61.9,46.5h-37c-1.2,0-2.1-0.9-2.1-2.1V20.2c0-1.2,0.9-2.1,2.1-2.1h37c1.2,0,2.1,0.9,2.1,2.1v24.2
		C64,45.5,63.1,46.5,61.9,46.5z M24.9,19.5c-0.4,0-0.7,0.3-0.7,0.7v24.2c0,0.4,0.3,0.7,0.7,0.7h37c0.4,0,0.7-0.3,0.7-0.7V20.2
		c0-0.4-0.3-0.7-0.7-0.7H24.9z"/>
</g>
<g>
	<path fill="#205081" d="M64.1,55.8H23.1c-0.4,0-0.7-0.3-0.7-0.7s0.3-0.7,0.7-0.7h40.9c0.4,0,0.7,0.3,0.7,0.7S64.5,55.8,64.1,55.8z"
		/>
</g>
<g>
	<path fill="#205081" d="M55.1,59.8h-22c-0.4,0-0.7-0.3-0.7-0.7c0-0.4,0.3-0.7,0.7-0.7h22c0.4,0,0.7,0.3,0.7,0.7
		C55.8,59.5,55.5,59.8,55.1,59.8z"/>
</g>
<g opacity="0.15">
	<path fill="#205081" d="M58.9,59.1h-43l5-9h39.9v7C60.8,58.2,60,59.1,58.9,59.1z"/>
</g>
<path fill="#205081" d="M49.6,40.9h-3.7c-0.4,0-0.7-0.3-0.7-0.7c0-0.4,0.3-0.7,0.7-0.7h3.7c0.4,0,0.7,0.3,0.7,0.7
	C50.3,40.6,50,40.9,49.6,40.9z"/>
<path fill="#205081" d="M42.2,40.9h-3.7c-0.4,0-0.7-0.3-0.7-0.7c0-0.4,0.3-0.7,0.7-0.7h3.7c0.4,0,0.7,0.3,0.7,0.7
	C42.9,40.6,42.6,40.9,42.2,40.9z"/>
<path fill="#205081" d="M34.8,40.9h-3.7c-0.4,0-0.7-0.3-0.7-0.7c0-0.4,0.3-0.7,0.7-0.7h3.7c0.4,0,0.7,0.3,0.7,0.7
	C35.5,40.6,35.2,40.9,34.8,40.9z"/>
<path fill="#205081" d="M50.8,38.1c-0.1,0-0.2,0-0.3-0.1c-0.3-0.2-0.5-0.6-0.4-0.9c0-0.1,0.1-0.2,0.1-0.2v-3.2
	c0-0.4,0.3-0.7,0.7-0.7c0.4,0,0.7,0.3,0.7,0.7v3.2c0,0.3-0.1,0.6-0.2,0.8C51.3,38,51.1,38.1,50.8,38.1z"/>
<path fill="#205081" d="M29,38.8c-0.4,0-0.7-0.3-0.7-0.7v-3.7c0-0.4,0.3-0.7,0.7-0.7s0.7,0.3,0.7,0.7v3.7
	C29.7,38.4,29.4,38.8,29,38.8z"/>
<path fill="#205081" d="M49.9,33.2c-0.1,0-0.1,0-0.2,0c0,0-0.1,0-0.1,0h-3.4c-0.4,0-0.7-0.3-0.7-0.7s0.3-0.7,0.7-0.7h3.4
	c0.2,0,0.3,0,0.5,0.1c0.4,0.1,0.6,0.5,0.5,0.8C50.5,33,50.2,33.2,49.9,33.2z"/>
<path fill="#205081" d="M42.5,33.2h-3.7c-0.4,0-0.7-0.3-0.7-0.7s0.3-0.7,0.7-0.7h3.7c0.4,0,0.7,0.3,0.7,0.7S42.9,33.2,42.5,33.2z"/>
<path fill="#205081" d="M35.1,33.2h-3.7c-0.4,0-0.7-0.3-0.7-0.7s0.3-0.7,0.7-0.7h3.7c0.4,0,0.7,0.3,0.7,0.7S35.5,33.2,35.1,33.2z"/>
<g opacity="0.2">
	<path fill="#205081" d="M67.5,26.7H40.7c-0.7,0-1.3,0.6-1.3,1.3v8.9c0,0.7,0.6,1.3,1.3,1.3h26.8V26.7z"/>
</g>
<g>
	<path fill="#FFFFFF" d="M72.9,35.3H46.3c-1.6,0-2.8-1.3-2.8-2.8v-7.7c0-1.6,1.3-2.8,2.8-2.8h26.6c1.6,0,2.8,1.3,2.8,2.8v7.7
		C75.7,34.1,74.4,35.3,72.9,35.3z"/>
	<path fill="#205081" d="M74.4,36H44.8c-1.1,0-2-0.9-2-2V23.3c0-1.1,0.9-2,2-2h29.6c1.1,0,2,0.9,2,2V34C76.4,35.1,75.5,36,74.4,36z
		 M44.8,22.7c-0.3,0-0.6,0.3-0.6,0.6V34c0,0.3,0.3,0.6,0.6,0.6h29.6c0.3,0,0.6-0.3,0.6-0.6V23.3c0-0.3-0.3-0.6-0.6-0.6H44.8z"/>
</g>
<g>
	<circle fill="#FFB600" cx="50.1" cy="28.2" r="3.3"/>
	<path fill="#205081" d="M50.1,32.3c-2.2,0-4-1.8-4-4s1.8-4,4-4c2.2,0,4,1.8,4,4S52.3,32.3,50.1,32.3z M50.1,25.6
		c-1.5,0-2.6,1.2-2.6,2.6s1.2,2.6,2.6,2.6s2.6-1.2,2.6-2.6S51.6,25.6,50.1,25.6z"/>
</g>
<g>
	<path fill="#205081" d="M69.7,27.3H57.4c-0.4,0-0.7-0.3-0.7-0.7c0-0.4,0.3-0.7,0.7-0.7h12.3c0.4,0,0.7,0.3,0.7,0.7
		C70.4,27,70.1,27.3,69.7,27.3z"/>
</g>
<g>
	<path fill="#205081" d="M64.6,31.4h-7.2c-0.4,0-0.7-0.3-0.7-0.7c0-0.4,0.3-0.7,0.7-0.7h7.2c0.4,0,0.7,0.3,0.7,0.7
		C65.3,31.1,65,31.4,64.6,31.4z"/>
</g>
</svg>
