<?xml version="1.0" encoding="utf-8"?>
<!-- Generator: Adobe Illustrator 18.1.1, SVG Export Plug-In . SVG Version: 6.00 Build 0)  -->
<svg version="1.1" id="Layer_6" xmlns="http://www.w3.org/2000/svg" xmlns:xlink="http://www.w3.org/1999/xlink" x="0px" y="0px"
	 viewBox="0 0 86.2 86.2" enable-background="new 0 0 86.2 86.2" xml:space="preserve">
<g>
	<circle fill="#F5F5F5" cx="43.1" cy="43.1" r="43.1"/>
</g>
<g>
	<path fill="#FFFFFF" d="M29.7,62.6h16.1c0,7.9,4.4,8.3,4.4,8.3l4.9,1.1c0.4,0.1,0.4,0.7,0,0.8L38.6,75c-0.4,0.1-0.8,0-1.2-0.1
		L35,74.2C35,74.2,29.7,73.2,29.7,62.6z"/>
	<path fill="#205081" d="M38.2,75.7c-0.4,0-0.7-0.1-1.1-0.2l-2.3-0.7c-0.6-0.1-5.8-1.6-5.8-12.2v-0.7h17.4l0,0.7
		c0,7.1,3.7,7.6,3.8,7.6l0.1,0l4.9,1.1c0.5,0.1,0.9,0.6,0.9,1.1c0,0.5-0.4,1-0.9,1l-16.5,2.2C38.5,75.7,38.4,75.7,38.2,75.7z
		 M30.4,63.3c0.2,9.1,4.5,10.1,4.7,10.2l0.1,0l2.4,0.7c0.3,0.1,0.6,0.1,0.9,0.1l14.7-2L50,71.7c-0.5-0.1-4.7-0.9-4.9-8.3H30.4z"/>
</g>
<g>
	<path fill="#FFB600" d="M22.8,64.4c-2.8,0.3-5.2-1.9-5.2-4.7V16.2c0-2.8,2.4-5,5.2-4.7h3l-0.6,53L22.8,64.4z"/>
	<path fill="#205081" d="M25.8,65.1l-3.1-0.1c-1.6,0.2-3.2-0.4-4.4-1.5c-1-1-1.6-2.4-1.6-3.8V16.2c0-3,2.4-5.4,5.4-5.4
		c0.2,0,0.4,0,0.6,0h3.7L25.8,65.1z M22.7,63.7l1.7,0l0.6-51.6l-2.4,0c-2.4-0.3-4.5,1.6-4.5,4v43.5c0,1.1,0.4,2.1,1.2,2.9
		C20.3,63.4,21.4,63.8,22.7,63.7L22.7,63.7z"/>
</g>
<g>
	<path fill="#FFFFFF" d="M67.4,61.3l-41.1,3.2c-2.4,0.3-4.5-1.6-4.5-4v-45c0-2.4,2.1-4.3,4.5-4l41.1,3.2c1.4,0.2,2.4,1.3,2.4,2.7
		v41.3C69.8,60,68.7,61.1,67.4,61.3z"/>
	<path fill="#205081" d="M25.8,65.2c-2.6,0-4.7-2.1-4.7-4.7v-45c0-2.8,2.4-5,5.3-4.7l41.1,3.2c1.7,0.2,3,1.6,3,3.4v41.3
		c0,1.7-1.3,3.2-3,3.4l-41.1,3.2C26.1,65.2,26,65.2,25.8,65.2z M25.8,12.1c-1.8,0-3.4,1.5-3.4,3.4v45c0,2,1.7,3.6,3.7,3.3l41.1-3.2
		c1-0.1,1.8-1,1.8-2V17.2c0-1-0.8-1.9-1.8-2l-41.1-3.2C26,12.1,25.9,12.1,25.8,12.1z"/>
</g>
<g>
	<path fill="#59AFE1" d="M64.3,57.4l-34.2,2C28,59.7,26.2,58,26.2,56V19.6c0-2.1,1.8-3.7,3.9-3.5l34.2,2.3c1.2,0.1,2.1,1.1,2.1,2.3
		v34.4C66.4,56.3,65.5,57.3,64.3,57.4z"/>
	<path fill="#205081" d="M29.7,60.2c-2.3,0-4.2-1.9-4.2-4.2V19.6c0-2.5,2.1-4.4,4.6-4.2l34.2,2.3c1.6,0.2,2.7,1.5,2.7,3v34.4
		c0,1.5-1.2,2.8-2.7,3l-34.2,2C30,60.1,29.9,60.2,29.7,60.2z M29.7,16.8c-1.5,0-2.8,1.3-2.8,2.8V56c0,1.6,1.4,3,3.1,2.8l34.2-2
		c0.8-0.1,1.4-0.8,1.4-1.6V20.7c0-0.8-0.6-1.5-1.5-1.6l-34.2-2.3C29.9,16.8,29.8,16.8,29.7,16.8z"/>
</g>
<g>
	<path fill="#FFFFFF" stroke="#205081" stroke-width="3" stroke-miterlimit="10" d="M18,19.1"/>
</g>
<g>
	<path fill="#FFFFFF" stroke="#205081" stroke-width="3" stroke-miterlimit="10" d="M21.7,18.8"/>
</g>
<g>
	<path fill="#FFFFFF" stroke="#205081" stroke-width="3" stroke-miterlimit="10" d="M18,53.8"/>
</g>
<g>
	<path fill="#FFFFFF" stroke="#205081" stroke-width="3" stroke-miterlimit="10" d="M21.7,54.5"/>
</g>
<g>
	<path fill="#205081" d="M40.4,42.5c-0.2,0-0.3-0.1-0.4-0.2c-0.3-0.2-0.3-0.7-0.1-1l6.4-7.7c0.2-0.3,0.7-0.3,1-0.1
		c0.3,0.2,0.3,0.7,0.1,1L41,42.2C40.8,42.4,40.6,42.5,40.4,42.5z"/>
</g>
<g>
	<path fill="#205081" d="M46,42.5c-0.2,0-0.3-0.1-0.4-0.2c-0.3-0.2-0.3-0.7-0.1-1l6.4-7.7c0.2-0.3,0.7-0.3,1-0.1
		c0.3,0.2,0.3,0.7,0.1,1l-6.4,7.7C46.4,42.4,46.2,42.5,46,42.5z"/>
</g>
<g opacity="0.15">
	<path fill="#1D4363" d="M69.7,26.7c-6.3,1.2-11,6.8-11,13.4c0,3.1,1.1,6,2.8,8.3l0.1,0.2c-0.3,1.1-0.8,2.5-1.4,3.5
		c-0.3,0.5,0.1,1.1,0.6,1.1c1.3-0.1,3.1-0.5,4.2-1.5c1.4,0.9,2.9,1.5,4.5,1.8V26.7z"/>
</g>
<g>
	<path fill="#FFFFFF" d="M69.4,22.6c-7.5,0-13.7,6.1-13.7,13.7c0,3.1,1.1,6,2.8,8.3l0.1,0.2c-0.3,1.1-0.8,2.5-1.4,3.5
		c-0.3,0.5,0.1,1.1,0.6,1.1c1.3-0.1,3.1-0.5,4.2-1.5c2.1,1.3,4.6,2.1,7.2,2.1c7.5,0,13.7-6.1,13.7-13.7S76.9,22.6,69.4,22.6z"/>
	<path fill="#205081" d="M69.4,50.6c-2.5,0-5-0.7-7.2-1.9c-1.3,0.9-2.9,1.2-4.2,1.3c-0.6,0.1-1.1-0.2-1.3-0.7c-0.2-0.4-0.2-1,0-1.4
		c0.4-0.7,0.8-1.7,1.2-3C56,42.4,55,39.4,55,36.3c0-7.9,6.4-14.4,14.4-14.4s14.4,6.4,14.4,14.4S77.3,50.6,69.4,50.6z M62.1,47
		l0.4,0.3c2.1,1.3,4.4,2,6.9,2c7.1,0,13-5.8,13-13s-5.8-13-13-13s-13,5.8-13,13c0,2.9,0.9,5.6,2.7,7.9l0.2,0.2l0.2,0.3L59.4,45
		c-0.4,1.6-0.9,2.8-1.4,3.7c1.2-0.1,2.8-0.4,3.8-1.3L62.1,47z"/>
</g>
<g>
	<path fill="#FFFFFF" d="M61.2,46.8c0,0,1.3,1.5,3,2.1"/>
	<path fill="#205081" d="M64.2,49.6c-0.1,0-0.2,0-0.2,0c-1.9-0.7-3.3-2.3-3.3-2.3c-0.3-0.3-0.2-0.7,0.1-1s0.7-0.2,1,0.1
		c0,0,1.2,1.4,2.8,1.9c0.4,0.1,0.5,0.5,0.4,0.9C64.8,49.4,64.5,49.6,64.2,49.6z"/>
</g>
<g>
	<g>
		<path fill="#205081" d="M68.4,38.4c-0.1-1.1,0.2-2.2,1.2-3.4c0.9-1,1.4-1.8,1.4-2.7c0-1-0.6-1.7-1.9-1.7c-0.5,0-1,0.1-1.4,0.3
			c-0.3,0.1-0.7,0-0.9-0.4l0,0c-0.1-0.3,0-0.7,0.4-0.8c0.6-0.3,1.5-0.5,2.3-0.5c2.3,0,3.3,1.4,3.3,2.9c0,1.3-0.7,2.3-1.7,3.4
			c-0.9,1-1.2,1.9-1.1,2.9v0.1c0,0.4-0.3,0.8-0.8,0.8l0,0c-0.4,0-0.8-0.3-0.8-0.8C68.4,38.3,68.4,38.4,68.4,38.4z M68,41.7
			c0-0.7,0.5-1.2,1.2-1.2s1.2,0.5,1.2,1.2c0,0.7-0.5,1.2-1.2,1.2C68.5,42.9,68,42.4,68,41.7z"/>
	</g>
</g>
</svg>
