<?xml version="1.0" encoding="utf-8"?>
<!-- Generator: Adobe Illustrator 18.1.1, SVG Export Plug-In . SVG Version: 6.00 Build 0)  -->
<svg version="1.0" id="Layer_1" xmlns="http://www.w3.org/2000/svg" xmlns:xlink="http://www.w3.org/1999/xlink" x="0px" y="0px"
	 viewBox="0 0 50 50" enable-background="new 0 0 50 50" xml:space="preserve">
<g>
	<path fill="#205081" d="M38,47H12c-2.5,0-4.5-2-4.5-4.5v-35C7.5,5,9.5,3,12,3h25c0.1,0,0.3,0.1,0.4,0.1l5,5
		c0.1,0.1,0.1,0.2,0.1,0.4v34C42.5,45,40.5,47,38,47z M12,4c-1.9,0-3.5,1.6-3.5,3.5v35c0,1.9,1.6,3.5,3.5,3.5h26
		c1.9,0,3.5-1.6,3.5-3.5V8.7L36.8,4H12z"/>
	<g>
		<path fill="#205081" fill-opacity="0.2" d="M42,8.5h-4c-0.6,0-1-0.4-1-1v-4L42,8.5z"/>
		<path fill="#205081" d="M42,9h-4c-0.8,0-1.5-0.7-1.5-1.5v-4c0-0.2,0.1-0.4,0.3-0.5C37,3,37.2,3,37.4,3.1l5,5
			c0.1,0.1,0.2,0.4,0.1,0.5S42.2,9,42,9z M37.5,4.7v2.8C37.5,7.8,37.7,8,38,8h2.8L37.5,4.7z"/>
	</g>
</g>
<path fill="#205081" d="M25,36.5c-5.2,0-9.5-4.3-9.5-9.5s4.3-9.5,9.5-9.5s9.5,4.3,9.5,9.5S30.2,36.5,25,36.5z M25,18.5
	c-4.7,0-8.5,3.8-8.5,8.5c0,4.7,3.8,8.5,8.5,8.5s8.5-3.8,8.5-8.5C33.5,22.3,29.7,18.5,25,18.5z"/>
<circle fill="#D04437" cx="25" cy="27" r="1"/>
<path fill="#D04437" d="M25,27.5c-0.1,0-0.3,0-0.4-0.1c-0.2-0.2-0.2-0.5,0-0.7l3-3c0.2-0.2,0.5-0.2,0.7,0s0.2,0.5,0,0.7l-3,3
	C25.3,27.5,25.1,27.5,25,27.5z"/>
<rect x="22.5" y="15" fill="#205081" width="5" height="1"/>
<rect x="23" y="15" fill="#205081" width="1" height="3"/>
<rect x="26" y="15" fill="#205081" width="1" height="3"/>
<g display="none" opacity="0.2">
	<line display="inline" fill="none" stroke="#205081" stroke-miterlimit="10" x1="32" y1="27" x2="30.8" y2="27"/>
	<line display="inline" fill="none" stroke="#205081" stroke-miterlimit="10" x1="18" y1="27" x2="19.2" y2="27"/>
	<line display="inline" fill="none" stroke="#205081" stroke-miterlimit="10" x1="25" y1="20" x2="25" y2="21.2"/>
	<line display="inline" fill="none" stroke="#205081" stroke-miterlimit="10" x1="25" y1="34" x2="25" y2="32.8"/>
	<line display="inline" fill="none" stroke="#205081" stroke-miterlimit="10" x1="29.9" y1="22.1" x2="29.1" y2="22.9"/>
	<line display="inline" fill="none" stroke="#205081" stroke-miterlimit="10" x1="20.1" y1="31.9" x2="20.9" y2="31.1"/>
	<line display="inline" fill="none" stroke="#205081" stroke-miterlimit="10" x1="29.9" y1="31.9" x2="29.1" y2="31.1"/>
	<line display="inline" fill="none" stroke="#205081" stroke-miterlimit="10" x1="20.1" y1="22.1" x2="20.9" y2="22.9"/>
</g>
</svg>
