<?xml version="1.0" encoding="utf-8"?>
<!-- Generator: Adobe Illustrator 18.1.1, SVG Export Plug-In . SVG Version: 6.00 Build 0)  -->
<svg version="1.0" id="Layer_1" xmlns="http://www.w3.org/2000/svg" xmlns:xlink="http://www.w3.org/1999/xlink" x="0px" y="0px"
	 viewBox="0 0 50 50" enable-background="new 0 0 50 50" xml:space="preserve">
<g>
	<path fill="#67AB49" d="M25.3,35.8c-6,0-10.8-4.9-10.8-10.8c0-6,4.9-10.8,10.8-10.8c5,0,9.3,3.3,10.5,8.1c0.1,0.3-0.1,0.5-0.4,0.6
		c-0.3,0.1-0.5-0.1-0.6-0.4c-1.1-4.3-5-7.4-9.5-7.4c-5.4,0-9.8,4.4-9.8,9.8s4.4,9.8,9.8,9.8s9.8-4.4,9.8-9.8c0-0.3,0.2-0.5,0.5-0.5
		s0.5,0.2,0.5,0.5C36.2,31,31.3,35.8,25.3,35.8z"/>
	<path fill="#67AB49" d="M38.3,27.7c-0.1,0-0.3,0-0.4-0.1l-2.3-2.3l-2.3,2.3c-0.2,0.2-0.5,0.2-0.7,0s-0.2-0.5,0-0.7l3-3l3,3
		c0.2,0.2,0.2,0.5,0,0.7C38.6,27.7,38.5,27.7,38.3,27.7z"/>
</g>
<g>
	<path fill="#205081" d="M38,47H12c-2.5,0-4.5-2-4.5-4.5v-35C7.5,5,9.5,3,12,3h25c0.1,0,0.3,0.1,0.4,0.1l5,5
		c0.1,0.1,0.1,0.2,0.1,0.4v34C42.5,45,40.5,47,38,47z M12,4c-1.9,0-3.5,1.6-3.5,3.5v35c0,1.9,1.6,3.5,3.5,3.5h26
		c1.9,0,3.5-1.6,3.5-3.5V8.7L36.8,4H12z"/>
	<g>
		<path fill="#205081" fill-opacity="0.2" d="M42,8.5h-4c-0.6,0-1-0.4-1-1v-4L42,8.5z"/>
		<path fill="#205081" d="M42,9h-4c-0.8,0-1.5-0.7-1.5-1.5v-4c0-0.2,0.1-0.4,0.3-0.5C37,3,37.2,3,37.4,3.1l5,5
			c0.1,0.1,0.2,0.4,0.1,0.5S42.2,9,42,9z M37.5,4.7v2.8C37.5,7.8,37.7,8,38,8h2.8L37.5,4.7z"/>
	</g>
</g>
</svg>
