<?xml version="1.0" encoding="utf-8"?>
<!-- Generator: Adobe Illustrator 18.1.1, SVG Export Plug-In . SVG Version: 6.00 Build 0)  -->
<svg version="1.0" id="Layer_1" xmlns="http://www.w3.org/2000/svg" xmlns:xlink="http://www.w3.org/1999/xlink" x="0px" y="0px"
	 viewBox="0 0 50 50" enable-background="new 0 0 50 50" xml:space="preserve">
<path fill="#205081" d="M36,47H10c-2.5,0-4.5-2-4.5-4.5v-35C5.5,5,7.5,3,10,3h25c0.1,0,0.3,0.1,0.4,0.1l5,5c0.1,0.1,0.1,0.2,0.1,0.4
	V22h-1V8.7L34.8,4H10C8.1,4,6.5,5.6,6.5,7.5v35c0,1.9,1.6,3.5,3.5,3.5h26c1.9,0,3.5-1.6,3.5-3.5V28h1v14.5C40.5,45,38.5,47,36,47z"
	/>
<g>
	<path fill="#205081" fill-opacity="0.2" d="M40,8.5h-4c-0.6,0-1-0.4-1-1v-4L40,8.5z"/>
	<path fill="#205081" d="M40,9h-4c-0.8,0-1.5-0.7-1.5-1.5v-4c0-0.2,0.1-0.4,0.3-0.5C35,3,35.2,3,35.4,3.1l5,5
		c0.1,0.1,0.2,0.4,0.1,0.5S40.2,9,40,9z M35.5,4.7v2.8C35.5,7.8,35.7,8,36,8h2.8L35.5,4.7z"/>
</g>
<path fill="#F79232" d="M46,25.5H13c-0.3,0-0.5-0.2-0.5-0.5s0.2-0.5,0.5-0.5h33c0.3,0,0.5,0.2,0.5,0.5S46.3,25.5,46,25.5z"/>
<path fill="#205081" d="M33,18.5H13c-0.3,0-0.5-0.2-0.5-0.5s0.2-0.5,0.5-0.5h20c0.3,0,0.5,0.2,0.5,0.5S33.3,18.5,33,18.5z"/>
<path fill="#205081" d="M33,32.5H13c-0.3,0-0.5-0.2-0.5-0.5s0.2-0.5,0.5-0.5h20c0.3,0,0.5,0.2,0.5,0.5S33.3,32.5,33,32.5z"/>
<path fill="#F79232" d="M43.7,28.8c-0.1,0-0.3,0-0.4-0.1c-0.2-0.2-0.2-0.5,0-0.7l3-3l-3-3c-0.2-0.2-0.2-0.5,0-0.7s0.5-0.2,0.7,0
	l3.3,3.3c0.2,0.2,0.2,0.5,0,0.7L44,28.7C43.9,28.8,43.8,28.8,43.7,28.8z"/>
</svg>
